<svg xmlns="http://www.w3.org/2000/svg" width="42" height="11" fill="none"><path fill="#999" d="M11.1094 10.9648h-2.54L5.7655 2.7031c-.0175-.0879-.079-.1318-.1845-.1318-.0997 0-.1729.044-.2198.1318l-2.7422 8.2617H.044c.1465-.5097.46-1.5234.9405-3.041a292.718 292.718 0 0 1 1.415-4.3066c.5098-1.5059.8203-2.3438.9316-2.5137.211-.2988.5186-.5273.923-.6855.4042-.1582.8437-.2373 1.3183-.2373s.9111.079 1.3095.2373c.4043.1582.712.3867.9229.6855.1289.1758.4453 1.0078.9492 2.4961.3106.914.7734 2.3496 1.3887 4.3066.375 1.1895.6972 2.209.9668 3.0586Zm6.6072-4.2363h-2.2851c-.586 0-1.0049.1963-1.2569.5889-.1699.2695-.2548.6064-.2548 1.0107v.2637a.4975.4975 0 0 0 .0263.0879v2.2851h-2.3379V7.4053c0-.8555.211-1.5469.6329-2.0743.4921-.6152 1.2158-.9228 2.1709-.9228h2.9091c.2696 0 .4776-.0908.6241-.2725.1464-.1875.2197-.4072.2197-.6591 0-.2696-.0703-.4951-.211-.6768-.1582-.205-.3691-.3076-.6328-.3076h-5.7129V.2246h6.1084c.9141 0 1.6377.337 2.1709 1.0108.4805.6093.7207 1.3564.7207 2.2412 0 .8789-.2402 1.623-.7207 2.2324-.5332.6797-1.2568 1.0195-2.1709 1.0195Zm12.8036 4.2363h-6.1084c-.9141 0-1.6377-.3427-2.1709-1.0283-.4805-.6152-.7207-1.371-.7207-2.2676 0-.8085.2021-1.5087.6064-2.1005-.4043-.5918-.6064-1.2862-.6064-2.083 0-.879.2402-1.626.7207-2.2413.5332-.6796 1.2568-1.0195 2.1709-1.0195h6.1084v2.2676h-5.7129c-.2578 0-.4629.0996-.6152.2988-.1465.1934-.2198.4219-.2198.6856 0 .2578.0704.4775.211.6591.1465.1817.3545.2725.624.2725h5.7129v2.3203h-6.0381c-.1582.0703-.2842.1934-.3779.3692-.0879.1757-.1319.3691-.1319.58 0 .2637.0704.4922.211.6856.1465.1933.3545.29.624.29h5.7129v2.3115Zm10.8524 0h-2.7862L36.064 7.0273c-.0469-.0879-.1231-.1318-.2285-.1318-.1055 0-.167.044-.1846.1318l-2.5752 3.9375h-2.7598c.2871-.457.5743-.9169.8614-1.3798.7207-1.1485 1.248-2.001 1.582-2.5577.2578-.4629.5186-.9257.7822-1.3886L30.3159.3037h2.7598L35.6509 4.25c.0176.0879.0791.1318.1846.1318.1054 0 .1816-.044.2285-.1318L38.5864.3037h2.7862l-3.1553 5.335 3.1553 5.3261Z"/></svg>