<svg xmlns="http://www.w3.org/2000/svg" width="76" height="25" fill="none"><path fill="#DDD" d="M8.625 11.836c.323.219.591.505.805.86.213.354.32.783.32 1.288 0 .516-.112.964-.336 1.344a2.9 2.9 0 0 1-.875.938 4 4 0 0 1-1.187.547c-.438.125-.891.187-1.36.187H.742v-.555c.125-.01.307-.03.547-.062.24-.037.412-.078.516-.125a.714.714 0 0 0 .343-.29.994.994 0 0 0 .102-.476V7.523c0-.177-.031-.333-.094-.468-.057-.136-.174-.245-.351-.328a2.21 2.21 0 0 0-.524-.18 3.804 3.804 0 0 0-.484-.078v-.555h5.117c.396 0 .774.04 1.133.117.364.078.71.216 1.039.414.307.183.56.43.758.742.198.313.297.693.297 1.141 0 .39-.07.74-.211 1.047-.14.302-.339.563-.594.781-.24.209-.516.386-.828.531-.307.141-.64.25-1 .329v.07a5.64 5.64 0 0 1 1.062.242c.396.12.748.29 1.055.508Zm-1.883-1.672c.193-.224.326-.469.399-.734.078-.266.117-.581.117-.946 0-.609-.167-1.086-.5-1.43-.334-.348-.86-.523-1.578-.523-.167 0-.378.005-.633.016-.25.005-.461.01-.633.016v4.257h.992c.427 0 .792-.054 1.094-.164.307-.11.555-.273.742-.492Zm1.078 3.54c0-.657-.221-1.196-.664-1.618-.437-.422-1.065-.633-1.883-.633-.333 0-.614.005-.843.016-.23.005-.401.01-.516.015v3.907c0 .328.133.575.398.742.266.166.636.25 1.11.25.776 0 1.37-.227 1.781-.68.412-.453.617-1.12.617-2ZM14.56 17h-3.757v-.516l.383-.03c.135-.017.247-.037.336-.063a.584.584 0 0 0 .328-.243.875.875 0 0 0 .11-.46V6.765c0-.188-.043-.362-.126-.524a.983.983 0 0 0-.312-.39c-.094-.063-.266-.12-.516-.172a4.69 4.69 0 0 0-.602-.094v-.5l2.899-.18.11.117v10.57a.91.91 0 0 0 .1.454.654.654 0 0 0 .329.265c.114.053.226.092.336.118.114.026.242.044.383.054V17Zm9.147-.14-2.508.171-.117-.11v-.976h-.047c-.125.13-.265.271-.422.422a3.077 3.077 0 0 1-.539.399c-.234.14-.46.247-.68.32-.218.073-.528.11-.929.11-.682 0-1.203-.222-1.563-.665-.354-.448-.53-1.096-.53-1.945v-3.688a.931.931 0 0 0-.414-.805.933.933 0 0 0-.352-.132 2.957 2.957 0 0 0-.446-.063v-.507l2.57-.188.118.11v5.351c0 .557.125.977.375 1.258s.55.422.898.422c.287 0 .542-.045.766-.133.224-.089.411-.193.562-.313.141-.109.263-.223.368-.343.109-.125.192-.24.25-.344v-4.367a.912.912 0 0 0-.11-.453 1.01 1.01 0 0 0-.305-.344c-.093-.063-.234-.1-.421-.11a15.572 15.572 0 0 0-.618-.039v-.507l2.797-.188.117.11v6.117c0 .177.037.328.11.453a.99.99 0 0 0 .305.32.914.914 0 0 0 .335.117c.13.016.274.026.43.032v.507Zm7.71-1.672a3.946 3.946 0 0 1-1.298 1.468c-.541.365-1.164.547-1.867.547-.62 0-1.164-.11-1.633-.328a3.207 3.207 0 0 1-1.148-.89 3.835 3.835 0 0 1-.68-1.313 5.635 5.635 0 0 1-.218-1.586c0-.5.078-.99.234-1.469.161-.484.396-.92.703-1.305.297-.37.664-.666 1.102-.89a3.18 3.18 0 0 1 1.484-.344c.562 0 1.044.089 1.445.266.401.177.727.419.977.726.24.292.416.636.531 1.032.12.395.18.825.18 1.289v.515h-5.102c0 .505.047.964.14 1.375.1.412.253.774.462 1.086.203.302.469.542.797.719.328.172.718.258 1.172.258.463 0 .861-.107 1.195-.32.338-.22.664-.61.976-1.172l.547.335ZM29.69 12.25a6.1 6.1 0 0 0-.078-.938 2.8 2.8 0 0 0-.235-.835 1.589 1.589 0 0 0-.492-.586c-.208-.151-.477-.227-.805-.227-.547 0-1.002.23-1.367.688-.36.453-.555 1.085-.586 1.898h3.563Z"/><path fill="#999" d="M41.383 7.227c.49.51.872 1.127 1.149 1.851.276.719.414 1.516.414 2.39 0 .881-.141 1.68-.422 2.4a5.338 5.338 0 0 1-1.172 1.835c-.484.5-1.047.886-1.688 1.156-.64.271-1.322.407-2.047.407-.77 0-1.484-.144-2.14-.43a5.01 5.01 0 0 1-1.68-1.211 5.528 5.528 0 0 1-1.11-1.836 6.684 6.684 0 0 1-.398-2.32c0-.901.141-1.703.422-2.406.282-.709.67-1.32 1.164-1.836a5.036 5.036 0 0 1 1.703-1.172 5.258 5.258 0 0 1 2.04-.407c.734 0 1.427.138 2.078.415a4.97 4.97 0 0 1 1.687 1.164Zm-1.164 7.859a5.12 5.12 0 0 0 .633-1.61 9.128 9.128 0 0 0 .203-2.007 9.05 9.05 0 0 0-.227-2.094c-.145-.635-.361-1.177-.648-1.625a3.088 3.088 0 0 0-1.078-1.031c-.432-.25-.927-.375-1.484-.375-.626 0-1.157.143-1.594.43a3.34 3.34 0 0 0-1.07 1.148c-.261.458-.456.995-.587 1.61a9.704 9.704 0 0 0-.187 1.937c0 .75.068 1.427.203 2.031.136.604.35 1.14.64 1.61a3.19 3.19 0 0 0 1.063 1.078c.427.255.938.382 1.532.382.557 0 1.06-.13 1.507-.39.448-.26.813-.625 1.094-1.094Zm7.397 2.117c-1.115 0-1.987-.37-2.618-1.11-.63-.739-.945-1.731-.945-2.976 0-.542.084-1.047.25-1.515.172-.474.42-.904.742-1.29.308-.37.693-.666 1.157-.89.463-.23.968-.344 1.515-.344.755 0 1.37.182 1.844.547.474.36.71.852.71 1.477a1.3 1.3 0 0 1-.187.695c-.125.198-.33.297-.617.297-.307 0-.547-.078-.719-.235-.166-.156-.25-.33-.25-.523a2.9 2.9 0 0 1 .094-.719c.063-.25.1-.432.11-.547a.677.677 0 0 0-.422-.32 1.971 1.971 0 0 0-.594-.086c-.25 0-.49.055-.719.164-.224.104-.442.3-.656.586-.193.26-.349.612-.469 1.055-.12.443-.18.971-.18 1.586 0 .968.214 1.76.641 2.375.432.61.998.914 1.695.914.506 0 .928-.123 1.266-.367.344-.245.661-.612.953-1.102l.5.328a4.037 4.037 0 0 1-1.36 1.461c-.562.36-1.142.54-1.741.54Zm10.467-2.015a3.944 3.944 0 0 1-1.297 1.468c-.542.365-1.164.547-1.868.547-.62 0-1.164-.11-1.632-.328a3.207 3.207 0 0 1-1.149-.89 3.834 3.834 0 0 1-.68-1.313 5.638 5.638 0 0 1-.218-1.586c0-.5.078-.99.234-1.469a4.21 4.21 0 0 1 .703-1.305 3.35 3.35 0 0 1 1.102-.89 3.18 3.18 0 0 1 1.484-.344c.563 0 1.044.089 1.446.266.4.177.726.419.976.726.24.292.417.636.531 1.032.12.395.18.825.18 1.289v.515h-5.102c0 .505.047.964.141 1.375.099.412.253.774.461 1.086.203.302.469.542.797.719.328.172.719.258 1.172.258.463 0 .862-.107 1.195-.32.339-.22.664-.61.977-1.172l.547.335Zm-1.727-2.938c0-.292-.026-.604-.078-.938a2.8 2.8 0 0 0-.235-.835 1.588 1.588 0 0 0-.492-.586c-.208-.151-.476-.227-.804-.227-.547 0-1.003.23-1.368.688-.359.453-.554 1.085-.586 1.898h3.563Zm9.834 4.61a9.13 9.13 0 0 1-.648.21c-.183.058-.391.086-.625.086-.407 0-.732-.093-.977-.281-.24-.193-.393-.471-.46-.836h-.048a3.789 3.789 0 0 1-1.094.86c-.385.197-.851.296-1.398.296-.578 0-1.055-.177-1.43-.53-.37-.355-.554-.819-.554-1.392 0-.296.041-.562.125-.796.083-.235.208-.446.375-.633a1.82 1.82 0 0 1 .515-.414 4.26 4.26 0 0 1 .602-.297c.234-.089.708-.253 1.422-.492.718-.24 1.203-.428 1.453-.563v-.773c0-.068-.016-.198-.047-.39a1.571 1.571 0 0 0-.18-.548 1.5 1.5 0 0 0-.445-.5c-.188-.146-.456-.219-.805-.219-.24 0-.463.042-.672.125-.203.079-.346.162-.43.25 0 .105.024.258.071.461.052.204.078.391.078.563 0 .182-.083.349-.25.5-.161.15-.388.226-.68.226-.26 0-.453-.09-.578-.273a1.119 1.119 0 0 1 .07-1.313c.172-.218.394-.414.665-.585a3.49 3.49 0 0 1 .851-.368c.334-.104.66-.156.977-.156.437 0 .818.031 1.14.094.329.057.625.185.891.383.266.192.466.455.602.789.14.328.21.752.21 1.273 0 .745-.007 1.406-.023 1.985-.016.572-.023 1.2-.023 1.882 0 .204.033.365.101.485.073.12.182.221.328.304.078.047.2.073.368.079.171.005.346.007.523.007v.5Zm-2.727-4.126c-.442.13-.83.258-1.164.383a4.709 4.709 0 0 0-.93.469c-.26.177-.465.388-.617.633-.15.24-.226.526-.226.86 0 .431.112.75.336.952.229.203.518.305.867.305.37 0 .695-.089.977-.266.28-.182.518-.396.71-.64l.047-2.696ZM75.383 17H71.61v-.516l.39-.03c.147-.011.266-.032.36-.063a.55.55 0 0 0 .32-.243.875.875 0 0 0 .11-.46v-3.961c0-.547-.13-.97-.39-1.266-.256-.297-.569-.445-.938-.445-.276 0-.53.044-.758.132a2.58 2.58 0 0 0-.61.313c-.171.12-.31.25-.414.39a3.52 3.52 0 0 0-.218.329v4.43c0 .177.036.322.109.437a.703.703 0 0 0 .328.265c.11.053.227.092.352.118.13.026.263.044.398.054V17h-3.773v-.516l.367-.03c.13-.011.242-.032.336-.063a.55.55 0 0 0 .32-.243.875.875 0 0 0 .11-.46V10.93a1.01 1.01 0 0 0-.118-.485.932.932 0 0 0-.312-.367 1.01 1.01 0 0 0-.352-.133 2.765 2.765 0 0 0-.437-.062v-.508l2.562-.172.11.11v1.085h.039c.125-.125.28-.273.468-.445a3.93 3.93 0 0 1 .532-.43c.192-.125.421-.229.687-.312.266-.083.565-.125.899-.125.74 0 1.286.232 1.64.695.36.459.54 1.07.54 1.836v4.008c0 .182.03.33.093.445.063.11.17.196.32.258.125.052.232.089.32.11.094.02.222.036.383.046V17Z"/><path stroke="#DDD" stroke-width="1.5" d="M75 22s-7.59-4.5-34.786 0C13.017 26.5 1 22 1 22"/></svg>