<svg xmlns="http://www.w3.org/2000/svg" width="123" height="22" fill="none"><path fill="#999" d="M22.688 11.416c0-1.088.245-2.064.736-2.928a5.349 5.349 0 0 1 2-2.048c.853-.49 1.797-.736 2.832-.736 1.216 0 2.277.293 3.184.88s1.568 1.419 1.984 2.496H31.68c-.31-.672-.757-1.19-1.344-1.552-.576-.363-1.27-.544-2.08-.544-.779 0-1.477.181-2.096.544a3.792 3.792 0 0 0-1.456 1.552c-.352.661-.528 1.44-.528 2.336 0 .885.176 1.664.528 2.336a3.817 3.817 0 0 0 1.456 1.536c.619.363 1.317.544 2.096.544.81 0 1.504-.176 2.08-.528.587-.363 1.035-.88 1.344-1.552h1.744c-.416 1.067-1.077 1.893-1.984 2.48-.907.576-1.968.864-3.184.864-1.035 0-1.979-.24-2.832-.72a5.38 5.38 0 0 1-2-2.032c-.49-.864-.736-1.84-.736-2.928Zm16.727 5.728a4.534 4.534 0 0 1-2.24-.56A4.07 4.07 0 0 1 35.607 15c-.373-.693-.56-1.493-.56-2.4 0-.896.192-1.685.576-2.368a4.008 4.008 0 0 1 1.6-1.584c.672-.373 1.424-.56 2.256-.56.832 0 1.584.187 2.256.56.672.363 1.2.885 1.584 1.568.395.683.592 1.477.592 2.384 0 .907-.202 1.707-.608 2.4a4.12 4.12 0 0 1-1.616 1.584c-.682.373-1.44.56-2.272.56Zm0-1.28c.523 0 1.014-.123 1.472-.368a2.749 2.749 0 0 0 1.104-1.104c.288-.49.432-1.088.432-1.792s-.138-1.301-.416-1.792c-.277-.49-.64-.853-1.088-1.088a2.983 2.983 0 0 0-1.456-.368c-.533 0-1.024.123-1.472.368-.437.235-.789.597-1.056 1.088-.266.49-.4 1.088-.4 1.792 0 .715.128 1.317.384 1.808.267.49.619.859 1.056 1.104.438.235.918.352 1.44.352Zm5.867-3.28c0-.896.181-1.68.544-2.352a3.95 3.95 0 0 1 1.488-1.584 4.176 4.176 0 0 1 2.144-.56c.682 0 1.317.16 1.904.48.586.31 1.034.72 1.344 1.232V5.16h1.472V17h-1.472v-1.648c-.288.523-.715.955-1.28 1.296-.566.33-1.227.496-1.984.496a4.057 4.057 0 0 1-2.128-.576 4.04 4.04 0 0 1-1.488-1.616c-.363-.693-.544-1.483-.544-2.368Zm7.424.016c0-.661-.134-1.237-.4-1.728a2.754 2.754 0 0 0-1.088-1.12 2.854 2.854 0 0 0-1.488-.4c-.544 0-1.04.128-1.488.384-.448.256-.806.63-1.072 1.12-.267.49-.4 1.067-.4 1.728 0 .672.133 1.259.4 1.76a2.9 2.9 0 0 0 1.072 1.136c.448.256.944.384 1.488.384s1.04-.128 1.488-.384a2.864 2.864 0 0 0 1.088-1.136c.266-.501.4-1.083.4-1.744Zm11.932-.32c0 .277-.016.57-.048.88h-7.008c.054.864.347 1.541.88 2.032.544.48 1.2.72 1.968.72.63 0 1.152-.144 1.568-.432.427-.299.726-.693.896-1.184h1.568a3.808 3.808 0 0 1-1.408 2.064c-.704.523-1.578.784-2.624.784-.832 0-1.578-.187-2.24-.56A3.992 3.992 0 0 1 56.654 15c-.373-.693-.56-1.493-.56-2.4 0-.907.182-1.701.544-2.384a3.78 3.78 0 0 1 1.52-1.568c.662-.373 1.419-.56 2.272-.56.832 0 1.568.181 2.208.544a3.7 3.7 0 0 1 1.472 1.504c.352.63.528 1.344.528 2.144Zm-1.504-.304c0-.555-.122-1.03-.368-1.424a2.317 2.317 0 0 0-1.008-.912 3.006 3.006 0 0 0-1.392-.32c-.736 0-1.365.235-1.888.704-.512.47-.805 1.12-.88 1.952h5.536Zm6.53 5.168c-.672 0-1.275-.112-1.808-.336-.533-.235-.954-.555-1.264-.96-.31-.416-.48-.89-.512-1.424h1.504c.043.437.245.795.608 1.072.374.277.859.416 1.456.416.555 0 .992-.123 1.312-.368.32-.245.48-.555.48-.928 0-.384-.17-.667-.512-.848-.341-.192-.87-.379-1.584-.56a13.04 13.04 0 0 1-1.6-.512 3.039 3.039 0 0 1-1.056-.784c-.288-.352-.432-.81-.432-1.376 0-.448.133-.859.4-1.232s.645-.667 1.136-.88c.49-.224 1.05-.336 1.68-.336.97 0 1.755.245 2.352.736.597.49.918 1.163.96 2.016h-1.456a1.494 1.494 0 0 0-.56-1.104c-.33-.277-.778-.416-1.344-.416-.523 0-.939.112-1.248.336-.31.224-.464.517-.464.88 0 .288.09.528.272.72.192.181.427.33.704.448.288.107.683.23 1.184.368.63.17 1.141.341 1.536.512.395.16.73.405 1.008.736.288.33.438.763.448 1.296 0 .48-.133.912-.4 1.296-.266.384-.645.688-1.136.912-.48.213-1.035.32-1.664.32Zm7.031-7.712V14.6c0 .427.091.73.273.912.18.17.495.256.944.256h1.072V17H77.67c-.81 0-1.418-.187-1.824-.56-.405-.373-.607-.987-.607-1.84V9.432h-1.136v-1.2h1.136V6.024h1.456v2.208h2.288v1.2h-2.288Zm5.509.224c.256-.501.618-.89 1.088-1.168.48-.277 1.061-.416 1.744-.416v1.504h-.384c-1.632 0-2.448.885-2.448 2.656V17h-1.456V8.232h1.456v1.424Zm12.512 2.624c0 .277-.016.57-.048.88H87.66c.054.864.347 1.541.88 2.032.544.48 1.2.72 1.968.72.63 0 1.152-.144 1.568-.432.427-.299.726-.693.896-1.184h1.568a3.808 3.808 0 0 1-1.408 2.064c-.704.523-1.578.784-2.624.784-.832 0-1.578-.187-2.24-.56A3.992 3.992 0 0 1 86.732 15c-.373-.693-.56-1.493-.56-2.4 0-.907.182-1.701.544-2.384a3.78 3.78 0 0 1 1.52-1.568c.662-.373 1.419-.56 2.272-.56.832 0 1.568.181 2.208.544a3.7 3.7 0 0 1 1.472 1.504c.352.63.528 1.344.528 2.144Zm-1.504-.304c0-.555-.122-1.03-.368-1.424a2.317 2.317 0 0 0-1.008-.912 3.006 3.006 0 0 0-1.392-.32c-.736 0-1.365.235-1.888.704-.512.47-.805 1.12-.88 1.952h5.536Zm2.882.608c0-.896.182-1.68.544-2.352a3.95 3.95 0 0 1 1.488-1.584c.64-.373 1.35-.56 2.128-.56.768 0 1.435.165 2 .496.566.33.987.747 1.264 1.248v-1.6h1.472V17h-1.472v-1.632c-.288.512-.72.939-1.296 1.28-.565.33-1.226.496-1.984.496a3.974 3.974 0 0 1-2.112-.576 4.04 4.04 0 0 1-1.488-1.616c-.362-.693-.544-1.483-.544-2.368Zm7.424.016c0-.661-.133-1.237-.4-1.728a2.747 2.747 0 0 0-1.088-1.12 2.854 2.854 0 0 0-1.488-.4c-.544 0-1.04.128-1.488.384-.448.256-.805.63-1.072 1.12-.266.49-.4 1.067-.4 1.728 0 .672.134 1.259.4 1.76a2.9 2.9 0 0 0 1.072 1.136c.448.256.944.384 1.488.384s1.04-.128 1.488-.384a2.857 2.857 0 0 0 1.088-1.136c.267-.501.4-1.083.4-1.744Zm14.477-4.528c.682 0 1.29.144 1.824.432.533.277.954.699 1.264 1.264.309.565.464 1.253.464 2.064V17h-1.44v-4.96c0-.875-.219-1.541-.656-2-.427-.47-1.008-.704-1.744-.704-.758 0-1.36.245-1.808.736-.448.48-.672 1.179-.672 2.096V17h-1.44v-4.96c0-.875-.219-1.541-.656-2-.427-.47-1.008-.704-1.744-.704-.758 0-1.36.245-1.808.736-.448.48-.672 1.179-.672 2.096V17h-1.456V8.232h1.456v1.264a2.89 2.89 0 0 1 1.152-1.056 3.56 3.56 0 0 1 1.616-.368c.736 0 1.386.165 1.952.496.565.33.986.816 1.264 1.456a2.87 2.87 0 0 1 1.216-1.44 3.58 3.58 0 0 1 1.888-.512Z"/><path stroke="#999" stroke-linecap="round" stroke-linejoin="round" stroke-width="1.333" d="m10.667 15 4-4-4-4M5.333 7l-4 4 4 4"/></svg>