<svg xmlns="http://www.w3.org/2000/svg" width="41" height="13" fill="none"><path fill="#999" d="m9.1719 9.0703.2578.0547L8.5234 12H.3204v-.2891h.3983c.448 0 .7683-.1458.961-.4375.1094-.1666.164-.552.164-1.1562v-6.836c0-.6614-.0729-1.0755-.2187-1.2421-.2031-.2292-.5052-.3438-.9063-.3438H.3204v-.289h4.7969v.289c-.5625-.0052-.9584.0469-1.1875.1563-.224.1093-.3776.2474-.461.414-.0833.1667-.125.5651-.125 1.1953v6.6563c0 .4323.0417.7292.125.8906.0625.1094.1589.1901.2891.2422.1302.0521.5365.0781 1.2188.0781H5.75c.8125 0 1.3828-.0599 1.711-.1797.328-.1198.6275-.3307.8984-.6328.2708-.3073.5416-.789.8125-1.4453Zm2.1525-1.5312c-.0052 1.0625.2526 1.8958.7734 2.5.5208.6041 1.1328.9062 1.836.9062.4687 0 .875-.1276 1.2187-.3828.349-.2604.6406-.7031.875-1.3281l.2422.1562c-.1094.7136-.4271 1.3646-.9531 1.9532-.5261.5833-1.1849.875-1.9766.875-.8594 0-1.5964-.3334-2.2109-1-.6094-.6719-.9141-1.573-.9141-2.7032 0-1.224.3125-2.177.9375-2.8593.6302-.6875 1.4193-1.0313 2.3672-1.0313.8021 0 1.4609.2656 1.9766.7969.5156.526.7734 1.2317.7734 2.1172h-4.9453Zm0-.4532h3.3125c-.0261-.4583-.0808-.7812-.1641-.9687-.1302-.2917-.3255-.5209-.5859-.6875-.2552-.1667-.5235-.25-.8047-.25-.4323 0-.8203.1693-1.1641.5078-.3385.3333-.5364.7995-.5937 1.3984Zm9.8009 3.8829c-.7344.5677-1.1953.8958-1.3828.9843-.2812.1302-.5807.1953-.8984.1953-.4948 0-.9037-.1692-1.2266-.5078-.3177-.3385-.4766-.7838-.4766-1.3359 0-.349.0782-.651.2344-.9063.2136-.3541.5833-.6875 1.1094-1 .5312-.3125 1.4114-.6927 2.6406-1.1406v-.2812c0-.7136-.1146-1.2032-.3437-1.4688-.224-.2656-.5521-.3984-.9844-.3984-.3281 0-.5886.0885-.7813.2656-.1979.177-.2968.3802-.2968.6094l.0156.4531c0 .2396-.0625.4245-.1875.5547-.1198.1302-.2787.1953-.4766.1953-.1927 0-.3515-.0677-.4765-.2031-.1198-.1354-.1797-.3203-.1797-.5547 0-.448.2291-.8594.6875-1.2344.4583-.375 1.1015-.5625 1.9297-.5625.6354 0 1.1562.1068 1.5625.3203.3073.1615.5338.414.6797.7578.0937.224.1406.6823.1406 1.375v2.4297c0 .6823.013 1.1016.039 1.2578.0261.1511.0677.2526.125.3047.0625.0521.1329.0781.211.0781.0833 0 .1562-.0182.2187-.0546.1094-.0677.3203-.2578.6328-.5704v.4376c-.5833.7812-1.1406 1.1718-1.6718 1.1718-.2552 0-.4584-.0885-.6094-.2656-.1511-.1771-.2292-.4792-.2344-.9062Zm0-.5079V7.7344c-.7864.3125-1.2943.5338-1.5234.664-.4115.2292-.7058.4688-.8828.7188-.1771.25-.2657.5234-.2657.8203 0 .375.112.6875.336.9375.2239.2448.4817.3672.7734.3672.3958 0 .9167-.2604 1.5625-.7813Zm4.9885-5.828v1.6093c.5989-1.073 1.2135-1.6094 1.8437-1.6094.2865 0 .5234.0886.7109.2656.1875.172.2813.3724.2813.6016 0 .2031-.0677.375-.2031.5156-.1355.1406-.2969.211-.4844.211-.1823 0-.388-.0886-.6172-.2657-.224-.1822-.3906-.2734-.5-.2734-.0937 0-.1953.052-.3047.1563-.2344.2135-.4765.565-.7265 1.0546v3.4297c0 .3959.0494.6953.1484.8985.0677.1406.1875.2578.3594.3515.1718.0938.4192.1407.7422.1407V12h-3.6641v-.2812c.3646 0 .6354-.0573.8125-.1719.1302-.0834.2213-.2162.2734-.3985.0261-.0885.0391-.3411.0391-.7578V7.6172c0-.8334-.0182-1.3281-.0547-1.4844-.0312-.1614-.0937-.2786-.1875-.3515-.0885-.073-.2005-.1094-.3359-.1094-.1615 0-.3438.039-.5469.1172l-.0781-.2813 2.164-.875h.3282Zm5.1603 1.5155c.8385-1.0104 1.638-1.5156 2.3984-1.5156.3906 0 .7266.099 1.0078.2969.2813.1927.5052.513.6719.961.1146.3124.1719.7916.1719 1.4374v3.0547c0 .4531.0364.7604.1093.9219.0573.1302.1485.2318.2735.3047.1302.0729.3672.1094.7109.1094V12h-3.539v-.2812h.1484c.3333 0 .5651-.0495.6953-.1485.1354-.1042.2292-.2552.2813-.4531.0208-.0781.0312-.3229.0312-.7344V7.4531c0-.651-.0859-1.1224-.2578-1.414-.1667-.297-.4505-.4454-.8516-.4454-.6198 0-1.237.3386-1.8515 1.0157v3.7734c0 .4844.0286.7839.0859.8984.0729.1511.1719.2631.2969.336.1302.0677.3906.1016.7812.1016V12h-3.539v-.2812h.1562c.3646 0 .6094-.0912.7344-.2735.1302-.1875.1953-.5417.1953-1.0625V7.7266c0-.8594-.0208-1.3829-.0625-1.5704-.0365-.1875-.0964-.315-.1797-.3828-.0781-.0677-.1849-.1015-.3203-.1015-.1458 0-.3203.039-.5234.1172l-.1172-.2813 2.1562-.875h.336v1.5156ZM38.8484.8906c.2188 0 .4037.0782.5547.2344.1563.151.2344.336.2344.5547 0 .2187-.0781.4062-.2344.5625-.151.1562-.3359.2344-.5547.2344-.2187 0-.4062-.0782-.5625-.2344-.1562-.1563-.2343-.3438-.2343-.5625 0-.2188.0755-.4037.2265-.5547.1563-.1563.3464-.2344.5703-.2344Zm.6485 3.7422v5.75c0 .4479.0312.7474.0937.8984.0677.1459.1641.2553.2891.3282.1302.0729.3646.1094.7031.1094V12h-3.4765v-.2812c.3489 0 .5833-.0339.7031-.1016.1198-.0677.2135-.1797.2812-.336.0729-.1562.1094-.4557.1094-.8984V7.625c0-.776-.0234-1.2786-.0703-1.5078-.0365-.1667-.0938-.2813-.1719-.3438-.0781-.0677-.1849-.1015-.3203-.1015-.1458 0-.3229.039-.5312.1172l-.1094-.2813 2.1562-.875h.3438Z"/></svg>