<svg xmlns="http://www.w3.org/2000/svg" width="108" height="20" fill="none"><path fill="#999" d="M29.119 4.818h1.864l3.241 7.915h.12l3.241-7.915h1.865V15h-1.462V7.632h-.094l-3.003 7.353h-1.213l-3.003-7.358h-.095V15H29.12V4.818ZM41.564 15V7.364h1.486V15h-1.486Zm.75-8.815a.945.945 0 0 1-.666-.258.84.84 0 0 1-.273-.627.83.83 0 0 1 .273-.626.935.935 0 0 1 .666-.263c.259 0 .48.087.662.263a.824.824 0 0 1 .278.626c0 .242-.093.451-.278.627a.928.928 0 0 1-.661.258Zm4.223 4.28V15H45.05V7.364h1.427v1.243h.094c.176-.405.451-.73.826-.975.378-.245.853-.368 1.427-.368.52 0 .976.11 1.367.328.39.216.694.537.91.965.215.427.323.956.323 1.586V15h-1.487v-4.678c0-.554-.144-.986-.432-1.298-.289-.315-.685-.472-1.189-.472-.344 0-.65.074-.92.224-.264.149-.475.367-.63.656-.153.285-.23.63-.23 1.034Zm9.739 4.684a2.959 2.959 0 0 1-1.65-.472c-.481-.318-.86-.77-1.134-1.357-.272-.59-.408-1.298-.408-2.123 0-.826.138-1.532.413-2.118.278-.587.66-1.036 1.143-1.347a2.974 2.974 0 0 1 1.646-.468c.474 0 .855.08 1.143.239.292.156.517.338.676.547.163.209.289.392.378.552h.09V4.818h1.486V15h-1.451v-1.188h-.125a3.93 3.93 0 0 1-.387.557 2.155 2.155 0 0 1-.687.546c-.291.156-.67.234-1.133.234Zm.328-1.268c.428 0 .789-.112 1.084-.338.298-.228.523-.545.676-.95.156-.404.234-.874.234-1.411 0-.53-.077-.995-.229-1.392-.152-.398-.376-.708-.671-.93-.295-.222-.66-.333-1.094-.333-.447 0-.82.116-1.119.348a2.127 2.127 0 0 0-.676.95c-.149.4-.223.853-.223 1.357 0 .51.076.97.228 1.377.153.408.378.73.676.97.302.235.673.352 1.114.352ZM62.3 15V4.818h6.314v1.323h-4.778v3.102h4.326v1.317h-4.326V15H62.3Zm8.084 0V7.364h1.487V15h-1.487Zm.75-8.815a.945.945 0 0 1-.665-.258.84.84 0 0 1-.274-.627.83.83 0 0 1 .274-.626.935.935 0 0 1 .666-.263c.258 0 .479.087.661.263a.824.824 0 0 1 .278.626c0 .242-.092.451-.278.627a.928.928 0 0 1-.661.258Zm4.223 4.28V15H73.87V7.364h1.427v1.243h.095c.175-.405.45-.73.825-.975.378-.245.853-.368 1.427-.368.52 0 .976.11 1.367.328.391.216.694.537.91.965.215.427.323.956.323 1.586V15h-1.487v-4.678c0-.554-.144-.986-.432-1.298-.288-.315-.684-.472-1.188-.472-.345 0-.652.074-.92.224-.265.149-.476.367-.631.656-.153.285-.23.63-.23 1.034Zm9.74 4.684a2.959 2.959 0 0 1-1.651-.472c-.48-.318-.859-.77-1.134-1.357-.272-.59-.407-1.298-.407-2.123 0-.826.137-1.532.412-2.118.279-.587.66-1.036 1.144-1.347a2.974 2.974 0 0 1 1.645-.468c.474 0 .855.08 1.144.239.291.156.517.338.676.547.162.209.288.392.378.552h.09V4.818h1.486V15h-1.452v-1.188h-.124a3.93 3.93 0 0 1-.388.557 2.155 2.155 0 0 1-.686.546c-.292.156-.67.234-1.134.234Zm.327-1.268c.428 0 .79-.112 1.084-.338.299-.228.524-.545.676-.95.156-.404.234-.874.234-1.411 0-.53-.076-.995-.229-1.392-.152-.398-.376-.708-.67-.93-.296-.222-.66-.333-1.095-.333-.447 0-.82.116-1.118.348a2.128 2.128 0 0 0-.676.95c-.15.4-.224.853-.224 1.357 0 .51.076.97.229 1.377.152.408.377.73.676.97.301.235.672.352 1.113.352ZM95.686 15h-1.631l3.664-10.182h1.775L103.158 15h-1.631l-2.878-8.332h-.08L95.686 15Zm.273-3.987h5.29v1.292h-5.29v-1.292Zm10.206-6.195V15h-1.537V4.818h1.537Z"/><rect width="20" height="20" fill="#DDD" rx="2"/><path stroke="#777" stroke-linecap="round" stroke-linejoin="round" d="M4.667 15V5a1.667 1.667 0 0 1 1.667-1.667h9v13.334h-9A1.667 1.667 0 0 1 4.667 15Zm0 0a1.667 1.667 0 0 1 1.667-1.667h9"/><path stroke="#777" stroke-linecap="round" stroke-linejoin="round" d="M8.667 3.333v5.334l2-2 2 2V3.333"/></svg>