<svg xmlns="http://www.w3.org/2000/svg" width="75" height="18" fill="none"><path fill="#999" d="M11.544 1.928V13h-1.456V4.744L6.408 13H5.384L1.688 4.728V13H.232V1.928H1.8l4.096 9.152 4.096-9.152h1.552Zm10.47 6.352c0 .277-.017.57-.049.88h-7.008c.054.864.347 1.541.88 2.032.544.48 1.2.72 1.968.72.63 0 1.152-.144 1.568-.432.427-.299.726-.693.896-1.184h1.568a3.808 3.808 0 0 1-1.408 2.064c-.704.523-1.578.784-2.624.784-.832 0-1.578-.187-2.24-.56A3.992 3.992 0 0 1 14.03 11c-.373-.693-.56-1.493-.56-2.4 0-.907.182-1.701.544-2.384a3.78 3.78 0 0 1 1.52-1.568c.662-.373 1.419-.56 2.272-.56.832 0 1.568.181 2.208.544a3.7 3.7 0 0 1 1.472 1.504c.352.63.528 1.344.528 2.144Zm-1.505-.304c0-.555-.122-1.03-.368-1.424a2.317 2.317 0 0 0-1.008-.912 3.006 3.006 0 0 0-1.392-.32c-.736 0-1.365.235-1.888.704-.512.47-.805 1.12-.88 1.952h5.536Zm2.882.608c0-.896.182-1.68.544-2.352a3.952 3.952 0 0 1 1.488-1.584 4.176 4.176 0 0 1 2.144-.56c.683 0 1.317.16 1.904.48.587.31 1.035.72 1.344 1.232V1.16h1.472V13h-1.472v-1.648c-.288.523-.715.955-1.28 1.296-.565.33-1.227.496-1.984.496a4.057 4.057 0 0 1-2.128-.576 4.04 4.04 0 0 1-1.488-1.616c-.362-.693-.544-1.483-.544-2.368Zm7.424.016c0-.661-.133-1.237-.4-1.728a2.753 2.753 0 0 0-1.088-1.12 2.854 2.854 0 0 0-1.488-.4c-.544 0-1.04.128-1.488.384-.448.256-.805.63-1.072 1.12-.267.49-.4 1.067-.4 1.728 0 .672.133 1.259.4 1.76a2.9 2.9 0 0 0 1.072 1.136c.448.256.944.384 1.488.384s1.04-.128 1.488-.384a2.863 2.863 0 0 0 1.088-1.136c.267-.501.4-1.083.4-1.744ZM35.5 2.808a.958.958 0 0 1-.704-.288.958.958 0 0 1-.288-.704c0-.277.096-.512.288-.704A.958.958 0 0 1 35.5.824c.266 0 .49.096.672.288a.958.958 0 0 1 .288.704.958.958 0 0 1-.288.704.887.887 0 0 1-.672.288Zm.704 1.424V13h-1.456V4.232h1.456Zm1.697 4.32c0-.885.181-1.675.544-2.368.373-.693.87-1.232 1.488-1.616a3.783 3.783 0 0 1 2.048-.592c.566 0 1.072.101 1.52.304.448.192.81.464 1.088.816V4.072h2.736v13.184H44.59V11.88c-.31.373-.688.672-1.136.896-.437.224-.939.336-1.504.336a3.752 3.752 0 0 1-2.016-.576c-.618-.384-1.114-.923-1.488-1.616-.362-.693-.544-1.483-.544-2.368Zm6.688-.016c0-.48-.096-.88-.288-1.2a1.775 1.775 0 0 0-.72-.736 1.874 1.874 0 0 0-.944-.256c-.32 0-.63.085-.928.256-.299.16-.544.405-.736.736-.192.33-.288.736-.288 1.216s.096.885.288 1.216c.192.32.438.565.736.736.299.16.608.24.928.24.32 0 .63-.08.928-.24.31-.17.555-.421.736-.752.192-.33.288-.736.288-1.216Zm13.532-4.464V13h-2.736v-1.216a3.054 3.054 0 0 1-1.136.96c-.47.235-.992.352-1.569.352-.682 0-1.285-.15-1.807-.448a3.125 3.125 0 0 1-1.216-1.328c-.288-.576-.432-1.253-.432-2.032V4.072h2.72V8.92c0 .597.154 1.061.463 1.392.31.33.726.496 1.248.496.534 0 .955-.165 1.264-.496.31-.33.465-.795.465-1.392V4.072h2.736Zm3.34-.928c-.48 0-.874-.139-1.183-.416a1.41 1.41 0 0 1-.448-1.056c0-.427.15-.779.448-1.056.31-.288.704-.432 1.184-.432.47 0 .853.144 1.152.432.31.277.464.63.464 1.056 0 .416-.155.768-.464 1.056-.299.277-.683.416-1.152.416Zm1.36.928V13h-2.735V4.072h2.736Zm4.72 1.264a2.97 2.97 0 0 1 1.103-1.008c.47-.256 1.02-.384 1.648-.384.736 0 1.403.187 2 .56.598.373 1.067.907 1.409 1.6.352.693.528 1.499.528 2.416 0 .917-.177 1.728-.528 2.432-.342.693-.811 1.232-1.408 1.616a3.697 3.697 0 0 1-2 .56c-.62 0-1.169-.128-1.649-.384a3.024 3.024 0 0 1-1.104-.992v5.504h-2.736V4.072h2.736v1.264Zm3.904 3.184c0-.683-.192-1.216-.576-1.6a1.838 1.838 0 0 0-1.392-.592c-.544 0-1.008.197-1.392.592-.374.395-.56.933-.56 1.616s.186 1.221.56 1.616a1.87 1.87 0 0 0 1.392.592 1.87 1.87 0 0 0 1.391-.592c.385-.405.577-.95.577-1.632Z"/></svg>