<svg xmlns="http://www.w3.org/2000/svg" width="112" height="22" fill="none"><path fill="#999" d="M1.056 17V5.8h4.016l2.224 9.76h.288V5.8h2.08V17H5.648L3.424 7.24h-.288V17h-2.08Zm14.3188.224c-.7894 0-1.488-.1653-2.096-.496-.5974-.3413-1.0667-.816-1.408-1.424-.3307-.6187-.496-1.344-.496-2.176v-.192c0-.832.1653-1.552.496-2.16.3306-.6187.7946-1.0933 1.392-1.424.5973-.3413 1.2906-.512 2.08-.512.7786 0 1.456.176 2.032.528.576.3413 1.024.8213 1.344 1.44.32.608.48 1.3173.48 2.128v.688h-5.776c.0213.544.224.9867.608 1.328.384.3413.8533.512 1.408.512.5653 0 .9813-.1227 1.248-.368.2666-.2453.4693-.5173.608-.816l1.648.864c-.1494.2773-.368.5813-.656.912-.2774.32-.6507.5973-1.12.832-.4694.224-1.0667.336-1.792.336Zm-1.936-5.104h3.712c-.0427-.4587-.2294-.8267-.56-1.104-.32-.2773-.7414-.416-1.264-.416-.544 0-.976.1387-1.296.416-.32.2773-.5174.6453-.592 1.104Zm10.4983 5.008c-.6186 0-1.1626-.1387-1.632-.416-.4586-.288-.816-.6827-1.072-1.184-.256-.5013-.384-1.0773-.384-1.728V9.064h2.016v4.576c0 .5973.144 1.0453.432 1.344.2987.2987.72.448 1.264.448.6187 0 1.0987-.2027 1.44-.608.3414-.416.512-.992.512-1.728V9.064h2.016V17h-1.984v-1.04h-.288c-.128.2667-.368.528-.72.784s-.8853.384-1.6.384ZM30.6925 17V9.064h1.984v.896h.288c.1173-.32.3093-.5547.576-.704.2773-.1493.5973-.224.96-.224h.96v1.792h-.992c-.512 0-.9333.1387-1.264.416-.3307.2667-.496.6827-.496 1.248V17h-2.016Zm8.5403.224c-.5654 0-1.072-.096-1.52-.288-.448-.2027-.8054-.4907-1.072-.864-.256-.384-.384-.848-.384-1.392 0-.544.128-.9973.384-1.36.2666-.3733.6293-.6507 1.088-.832.4693-.192 1.0026-.288 1.6-.288h2.176v-.448c0-.3733-.1174-.6773-.352-.912-.2347-.2453-.608-.368-1.12-.368-.5014 0-.8747.1173-1.12.352-.2454.224-.4054.5173-.48.88l-1.856-.624c.128-.4053.3306-.7733.608-1.104.288-.3413.6666-.6133 1.136-.816.48-.2133 1.0613-.32 1.744-.32 1.0453 0 1.872.2613 2.48.784.608.5227.912 1.28.912 2.272v2.96c0 .32.1493.48.448.48h.64V17h-1.344c-.3947 0-.72-.096-.976-.288-.256-.192-.384-.448-.384-.768v-.016h-.304c-.0427.128-.1387.2987-.288.512-.1494.2027-.384.384-.704.544-.32.16-.7574.24-1.312.24Zm.352-1.632c.5653 0 1.024-.1547 1.376-.464.3626-.32.544-.7413.544-1.264v-.16h-2.032c-.3734 0-.6667.08-.88.24-.2134.16-.32.384-.32.672 0 .288.112.5227.336.704.224.1813.5493.272.976.272ZM69.7698 17V5.8h2.112v9.28h5.12V17h-7.232Zm12.2718.224c-.7893 0-1.488-.1653-2.096-.496-.5973-.3413-1.0666-.816-1.408-1.424-.3306-.6187-.496-1.344-.496-2.176v-.192c0-.832.1654-1.552.496-2.16.3307-.6187.7947-1.0933 1.392-1.424.5974-.3413 1.2907-.512 2.08-.512.7787 0 1.456.176 2.032.528.576.3413 1.024.8213 1.344 1.44.32.608.48 1.3173.48 2.128v.688h-5.776c.0214.544.224.9867.608 1.328.384.3413.8534.512 1.408.512.5654 0 .9814-.1227 1.248-.368.2667-.2453.4694-.5173.608-.816l1.648.864c-.1493.2773-.368.5813-.656.912-.2773.32-.6506.5973-1.12.832-.4693.224-1.0666.336-1.792.336Zm-1.936-5.104h3.712c-.0426-.4587-.2293-.8267-.56-1.104-.32-.2773-.7413-.416-1.264-.416-.544 0-.976.1387-1.296.416-.32.2773-.5173.6453-.592 1.104Zm9.9384 5.104c-.5653 0-1.072-.096-1.52-.288-.448-.2027-.8053-.4907-1.072-.864-.256-.384-.384-.848-.384-1.392 0-.544.128-.9973.384-1.36.2667-.3733.6293-.6507 1.088-.832.4693-.192 1.0027-.288 1.6-.288h2.176v-.448c0-.3733-.1173-.6773-.352-.912-.2347-.2453-.608-.368-1.12-.368-.5013 0-.8747.1173-1.12.352-.2453.224-.4053.5173-.48.88l-1.856-.624c.128-.4053.3307-.7733.608-1.104.288-.3413.6667-.6133 1.136-.816.48-.2133 1.0613-.32 1.744-.32 1.0453 0 1.872.2613 2.48.784.608.5227.912 1.28.912 2.272v2.96c0 .32.1493.48.448.48h.64V17h-1.344c-.3947 0-.72-.096-.976-.288-.256-.192-.384-.448-.384-.768v-.016h-.304c-.0427.128-.1387.2987-.288.512-.1493.2027-.384.384-.704.544-.32.16-.7573.24-1.312.24Zm.352-1.632c.5653 0 1.024-.1547 1.376-.464.3627-.32.544-.7413.544-1.264v-.16h-2.032c-.3733 0-.6667.08-.88.24-.2133.16-.32.384-.32.672 0 .288.112.5227.336.704.224.1813.5493.272.976.272ZM96.75 17V9.064h1.984v.896h.288c.1173-.32.3093-.5547.576-.704.2773-.1493.597-.224.96-.224h.96v1.792h-.992c-.512 0-.9333.1387-1.264.416-.3307.2667-.496.6827-.496 1.248V17H96.75Zm6.264 0V9.064h1.984v1.04h.288c.128-.2773.368-.5387.72-.784.352-.256.885-.384 1.6-.384.618 0 1.157.144 1.616.432.469.2773.832.6667 1.088 1.168.256.4907.384 1.0667.384 1.728V17h-2.016v-4.576c0-.5973-.15-1.0453-.448-1.344-.288-.2987-.704-.448-1.248-.448-.619 0-1.099.208-1.44.624-.342.4053-.512.976-.512 1.712V17h-2.016Z"/><g stroke="#696969" stroke-linecap="round" stroke-linejoin="round" stroke-width="2" clip-path="url(#a)"><path d="M54.3332 4.3333A1.6665 1.6665 0 0 1 55.9999 6v10a1.667 1.667 0 0 1-1.5194 1.6566 1.667 1.667 0 0 1-1.7873-1.3633 1.667 1.667 0 0 1-1.5638-.4719 1.666 1.666 0 0 1-.4095-1.5814 1.9998 1.9998 0 0 1-1.1051-2.9302 2.0001 2.0001 0 0 1 .8784-.7898 1.667 1.667 0 0 1 .0694-2.436 1.6669 1.6669 0 0 1 .8106-.3907 1.668 1.668 0 0 1 .2359-1.2799 1.6666 1.6666 0 0 1 1.0841-.72 1.6669 1.6669 0 0 1 1.64-1.36Z"/><path d="M57.6667 4.3333A1.6664 1.6664 0 0 0 56 6v10a1.667 1.667 0 0 0 1.5194 1.6566 1.667 1.667 0 0 0 1.7873-1.3633 1.667 1.667 0 0 0 1.5638-.4719A1.666 1.666 0 0 0 61.28 14.24a1.9998 1.9998 0 0 0 1.1051-2.9302 2.0001 2.0001 0 0 0-.8784-.7898 1.667 1.667 0 0 0 .42-1.681 1.667 1.667 0 0 0-1.3-1.1457 1.668 1.668 0 0 0-.2359-1.2799 1.6666 1.6666 0 0 0-1.0841-.72 1.6665 1.6665 0 0 0-1.64-1.36Z"/></g><defs><clipPath id="a"><path fill="#fff" d="M48 3h16v16H48z"/></clipPath></defs></svg>