<svg xmlns="http://www.w3.org/2000/svg" width="135" height="22" fill="none"><path fill="#999" d="M25.214 10.338c0 1.242-.183 2.298-.55 3.168a3.895 3.895 0 0 1-1.813 1.977c.57.104 1.048.26 1.436.468.394.202.725.481.993.837.273.36.506.828.697 1.403l-1.764.648c-.251-.618-.52-1.119-.804-1.502a2.705 2.705 0 0 0-1.058-.861c-.427-.197-.957-.296-1.592-.296-.88 0-1.627-.235-2.24-.705-.613-.476-1.075-1.149-1.387-2.019-.312-.875-.467-1.909-.467-3.101 0-1.182.161-2.216.484-3.102.322-.886.804-1.575 1.444-2.067.64-.493 1.422-.739 2.346-.739.925 0 1.707.24 2.347.722.64.482 1.121 1.165 1.444 2.052.323.88.484 1.92.484 3.117Zm-1.977 0c0-.995-.077-1.816-.23-2.461-.153-.646-.4-1.13-.738-1.452-.334-.323-.777-.484-1.33-.484-.552 0-.998.164-1.337.492-.334.323-.577.81-.73 1.46-.153.646-.23 1.466-.23 2.462 0 1.488.18 2.59.542 3.306.366.717.951 1.075 1.755 1.075.553 0 .996-.161 1.33-.484.339-.322.585-.807.738-1.452.153-.646.23-1.466.23-2.462Zm5.905 3.053c0 .503.099.867.296 1.091.202.224.517.337.943.337.383 0 .758-.115 1.124-.345.372-.23.668-.52.886-.87V7.335h1.838V16h-1.583l-.115-1.108c-.317.421-.722.75-1.214.985-.487.23-.993.344-1.518.344-.826 0-1.45-.226-1.871-.68-.416-.455-.624-1.095-.624-1.92V7.335h1.838v6.056Zm14.628.484c0 .334.049.58.147.738.104.159.274.277.509.353l-.41 1.247c-.443-.049-.815-.17-1.116-.36-.301-.192-.528-.471-.681-.838a3.012 3.012 0 0 1-1.19.903 4.023 4.023 0 0 1-1.575.303c-.58 0-1.086-.112-1.518-.336a2.374 2.374 0 0 1-.985-.944c-.23-.404-.345-.875-.345-1.41 0-.914.356-1.617 1.067-2.11.717-.492 1.734-.738 3.052-.738h1.24v-.566c0-.547-.165-.946-.493-1.198-.328-.252-.807-.377-1.436-.377-.3 0-.654.038-1.058.114a8.84 8.84 0 0 0-1.247.337l-.452-1.297a9.495 9.495 0 0 1 1.567-.443 7.906 7.906 0 0 1 1.47-.147c1.142 0 2.004.251 2.584.755.58.503.87 1.22.87 2.15v3.864Zm-3.758.993c.377 0 .74-.099 1.09-.296.356-.202.644-.478.862-.828v-1.912h-1.017c-.837 0-1.45.14-1.838.418-.383.274-.574.673-.574 1.198 0 .465.123.818.369 1.059.252.24.62.36 1.108.36ZM46.992 16V7.335h1.583l.14 1.124c.355-.432.78-.765 1.272-1a3.502 3.502 0 0 1 1.526-.353c.798 0 1.4.224 1.805.672.41.444.615 1.078.615 1.904V16h-1.838v-5.407c0-.536-.032-.95-.098-1.24-.06-.29-.18-.502-.361-.64-.175-.136-.435-.204-.78-.204-.394 0-.765.12-1.116.36a3.79 3.79 0 0 0-.91.912V16h-1.838Zm17.08-.46a4.071 4.071 0 0 1-1.157.493c-.443.126-.9.188-1.37.188-.662 0-1.222-.117-1.682-.352a2.408 2.408 0 0 1-1.042-.993c-.235-.427-.353-.927-.353-1.502V8.673H56.54V7.335h1.928V5.4l1.838-.222v2.158h2.921l-.205 1.338h-2.716v4.685c0 .47.118.818.353 1.042.235.224.616.336 1.14.336.58 0 1.117-.136 1.609-.41l.664 1.214Zm4.445-2.15c0 .504.099.868.296 1.092.202.224.516.337.943.337.383 0 .758-.115 1.124-.345.372-.23.668-.52.886-.87V7.335h1.838V16h-1.583l-.115-1.108c-.317.421-.722.75-1.214.985-.487.23-.993.344-1.518.344-.826 0-1.45-.226-1.871-.68-.416-.455-.624-1.095-.624-1.92V7.335h1.838v6.056Zm13.98-6.284c.54 0 .965.186 1.271.558.306.366.46.998.46 1.895V16h-1.633V9.813c0-.333-.014-.585-.041-.755-.022-.175-.077-.303-.164-.385-.082-.088-.208-.131-.378-.131-.465 0-.891.284-1.28.853V16h-1.485V9.813c0-.333-.014-.585-.04-.755-.023-.175-.078-.303-.165-.385-.082-.088-.208-.131-.377-.131-.23 0-.449.068-.657.205-.208.131-.416.347-.623.648V16h-1.642V7.335h1.387l.123.936c.274-.383.553-.673.837-.87.29-.197.63-.295 1.018-.295.77 0 1.266.369 1.485 1.107.262-.355.547-.629.853-.82a1.94 1.94 0 0 1 1.05-.287Zm11.213 5.768c0 .65-.164 1.228-.492 1.731-.323.498-.796.886-1.42 1.165-.618.28-1.356.419-2.215.419-.815 0-1.559-.123-2.232-.37a4.956 4.956 0 0 1-1.73-1.074l.844-.952c.41.388.87.686 1.379.894.514.203 1.102.304 1.764.304.47 0 .905-.077 1.304-.23.4-.159.72-.394.96-.706.241-.317.361-.703.361-1.156 0-.378-.073-.692-.221-.944-.142-.252-.391-.476-.747-.673-.355-.202-.859-.4-1.51-.59-.804-.236-1.468-.49-1.993-.764-.525-.279-.933-.62-1.223-1.025-.284-.405-.427-.898-.427-1.477 0-.558.154-1.056.46-1.494.312-.443.744-.787 1.296-1.034.558-.251 1.193-.377 1.904-.377.755 0 1.422.11 2.002.328a5.047 5.047 0 0 1 1.608.96l-.837.927a3.964 3.964 0 0 0-1.28-.77 4.182 4.182 0 0 0-1.444-.255 3.33 3.33 0 0 0-1.149.188c-.339.12-.61.307-.812.558-.197.252-.295.558-.295.92 0 .333.087.615.262.845.175.23.465.44.87.631.405.192.976.397 1.715.616.678.197 1.252.424 1.723.68.47.252.85.6 1.14 1.043.29.437.435.998.435 1.682Zm6.595 2.125c.771 0 1.521-.252 2.248-.755l.673.903a4.444 4.444 0 0 1-1.362.763 4.696 4.696 0 0 1-1.559.279c-.848 0-1.578-.183-2.19-.55a3.532 3.532 0 0 1-1.388-1.559c-.317-.673-.476-1.46-.476-2.363 0-.87.162-1.647.485-2.33.322-.69.79-1.228 1.403-1.617.612-.394 1.34-.59 2.182-.59 1.1 0 2.063.333 2.888 1l-.672.92c-.744-.515-1.488-.772-2.232-.772-.509 0-.955.126-1.338.378-.382.251-.683.631-.902 1.14-.213.509-.32 1.133-.32 1.87 0 1.106.23 1.93.69 2.47.464.542 1.088.813 1.87.813Zm12.125-.886c0 .339.054.59.164.755.109.158.29.276.541.352l-.336.969c-.832-.11-1.359-.514-1.584-1.215-.306.4-.694.703-1.165.911a3.823 3.823 0 0 1-1.542.304c-.569 0-1.064-.11-1.486-.329a2.302 2.302 0 0 1-.968-.927c-.224-.405-.336-.875-.336-1.41 0-.893.347-1.576 1.042-2.052.695-.476 1.698-.714 3.011-.714h1.272v-.722c0-.602-.175-1.037-.525-1.305-.35-.273-.862-.41-1.535-.41-.65 0-1.4.148-2.248.443l-.361-1.042c.963-.361 1.904-.542 2.823-.542 1.056 0 1.857.25 2.404.747.552.492.829 1.173.829 2.043v4.144Zm-3.57 1.026a2.46 2.46 0 0 0 1.215-.32c.388-.22.711-.52.968-.903v-2.224h-1.247c-.914 0-1.576.156-1.986.468-.41.312-.615.76-.615 1.346 0 1.088.555 1.633 1.665 1.633Zm11.091-7.96c1.105 0 1.901.392 2.388 1.174.492.782.738 1.89.738 3.323 0 .892-.123 1.676-.369 2.355-.246.673-.621 1.2-1.124 1.583-.498.383-1.11.575-1.838.575-.952 0-1.712-.334-2.281-1.001v4.119l-1.378.172V7.36h1.173l.115 1.206c.317-.448.695-.79 1.132-1.025.443-.241.925-.362 1.444-.362Zm-.328 1.108c-.443 0-.848.131-1.214.394a3.9 3.9 0 0 0-.944.993v4.283c.23.34.514.604.854.796.344.191.719.287 1.124.287.722 0 1.26-.276 1.616-.829.361-.552.542-1.4.542-2.543 0-1.138-.162-1.986-.485-2.544-.322-.558-.82-.837-1.493-.837Zm7.391 3.881c.021.646.147 1.184.377 1.617.23.426.531.743.903.951.372.203.787.304 1.247.304.426 0 .818-.063 1.173-.189a4.891 4.891 0 0 0 1.132-.59l.649.91c-.405.318-.87.566-1.395.747-.52.18-1.045.27-1.576.27-.826 0-1.537-.185-2.133-.557-.596-.372-1.05-.897-1.362-1.576-.306-.678-.46-1.466-.46-2.363 0-.87.156-1.646.468-2.33.312-.684.752-1.217 1.321-1.6.569-.388 1.231-.583 1.986-.583.722 0 1.345.17 1.871.51.53.338.935.828 1.214 1.468.284.634.427 1.387.427 2.256 0 .252-.011.504-.033.755h-5.809Zm2.346-3.856c-.667 0-1.211.235-1.633.705-.415.465-.651 1.16-.705 2.085h4.504c-.016-.909-.216-1.6-.599-2.076s-.905-.714-1.567-.714Z"/><path stroke="#AAA" stroke-linecap="round" stroke-linejoin="round" stroke-width="2" d="M11.334 10.333 8 7l-3.333 3.333M11.334 15 8 11.667 4.667 15"/></svg>