<svg xmlns="http://www.w3.org/2000/svg" width="94" height="13" fill="none"><path fill="#999" d="M3.296 12 .128 3.6h1.088l2.88 7.792H3.6L6.56 3.6h.976l2.928 7.792h-.496L12.896 3.6h1.04L10.752 12H9.68L6.864 4.672H7.2L4.368 12H3.296Zm15.46.08c-.81 0-1.541-.181-2.192-.544a4.155 4.155 0 0 1-1.52-1.52c-.373-.65-.56-1.392-.56-2.224 0-.843.187-1.584.56-2.224.373-.64.88-1.141 1.52-1.504s1.37-.544 2.192-.544c.832 0 1.568.181 2.208.544.65.363 1.158.864 1.52 1.504.373.64.56 1.381.56 2.224 0 .832-.186 1.573-.56 2.224a4 4 0 0 1-1.52 1.52c-.65.363-1.386.544-2.208.544Zm0-1.008c.608 0 1.147-.133 1.616-.4a2.94 2.94 0 0 0 1.104-1.152c.277-.501.416-1.077.416-1.728 0-.661-.139-1.237-.416-1.728a2.83 2.83 0 0 0-1.104-1.136 3.085 3.085 0 0 0-1.6-.416c-.597 0-1.13.139-1.6.416a2.94 2.94 0 0 0-1.12 1.136c-.277.49-.416 1.067-.416 1.728 0 .65.139 1.227.416 1.728.277.49.65.875 1.12 1.152.47.267.997.4 1.584.4Zm9.951 1.008c-.81 0-1.541-.181-2.192-.544a4.154 4.154 0 0 1-1.52-1.52c-.373-.65-.56-1.392-.56-2.224 0-.843.187-1.584.56-2.224.374-.64.88-1.141 1.52-1.504s1.371-.544 2.192-.544c.832 0 1.568.181 2.208.544.651.363 1.158.864 1.52 1.504.374.64.56 1.381.56 2.224 0 .832-.186 1.573-.56 2.224a4.001 4.001 0 0 1-1.52 1.52c-.65.363-1.386.544-2.208.544Zm0-1.008c.608 0 1.147-.133 1.616-.4.47-.277.838-.661 1.104-1.152.278-.501.416-1.077.416-1.728 0-.661-.138-1.237-.416-1.728a2.831 2.831 0 0 0-1.104-1.136 3.085 3.085 0 0 0-1.6-.416c-.597 0-1.13.139-1.6.416a2.94 2.94 0 0 0-1.12 1.136c-.277.49-.416 1.067-.416 1.728 0 .65.139 1.227.416 1.728.278.49.651.875 1.12 1.152.47.267.998.4 1.584.4Zm9.872 1.008c-.8 0-1.52-.181-2.16-.544a3.952 3.952 0 0 1-1.488-1.504c-.363-.65-.544-1.397-.544-2.24 0-.853.181-1.6.544-2.24a3.837 3.837 0 0 1 1.488-1.488c.64-.363 1.36-.544 2.16-.544.736 0 1.392.165 1.968.496.586.33 1.05.816 1.392 1.456.352.63.528 1.403.528 2.32 0 .907-.171 1.68-.512 2.32a3.638 3.638 0 0 1-1.392 1.472c-.576.33-1.238.496-1.984.496Zm.08-1.008c.597 0 1.13-.133 1.6-.4.48-.277.853-.661 1.12-1.152.277-.501.416-1.077.416-1.728 0-.661-.139-1.237-.416-1.728-.267-.49-.64-.87-1.12-1.136a3.085 3.085 0 0 0-1.6-.416c-.587 0-1.115.139-1.584.416a2.94 2.94 0 0 0-1.12 1.136c-.278.49-.416 1.067-.416 1.728 0 .65.138 1.227.416 1.728.277.49.65.875 1.12 1.152.469.267.997.4 1.584.4Zm3.168.928V9.472l.112-1.696-.16-1.696V.128h1.136V12h-1.088Zm6.427.08c-.693 0-1.349-.096-1.968-.288-.618-.203-1.104-.453-1.456-.752l.512-.896c.342.256.779.48 1.312.672a5.184 5.184 0 0 0 1.68.272c.8 0 1.376-.123 1.728-.368.352-.256.528-.592.528-1.008 0-.31-.101-.55-.304-.72-.192-.181-.448-.315-.768-.4a8.456 8.456 0 0 0-1.072-.24c-.394-.064-.789-.139-1.184-.224a4.567 4.567 0 0 1-1.056-.368 2.22 2.22 0 0 1-.784-.688c-.192-.288-.288-.672-.288-1.152 0-.459.128-.87.384-1.232.256-.363.63-.645 1.12-.848.502-.213 1.11-.32 1.824-.32.544 0 1.088.075 1.632.224.544.139.992.325 1.344.56l-.496.912a3.692 3.692 0 0 0-1.2-.544 4.81 4.81 0 0 0-1.28-.176c-.757 0-1.317.133-1.68.4-.352.256-.528.587-.528.992 0 .32.096.57.288.752.203.181.464.325.784.432.331.096.688.176 1.072.24.395.064.784.144 1.168.24.395.085.752.208 1.072.368.331.15.592.368.784.656.203.277.304.645.304 1.104 0 .49-.138.917-.416 1.28-.266.352-.661.63-1.184.832-.512.192-1.136.288-1.872.288Zm8.133 0c-.79 0-1.398-.213-1.824-.64-.427-.427-.64-1.03-.64-1.808V1.744h1.136v7.824c0 .49.123.87.368 1.136.256.267.618.4 1.088.4.501 0 .917-.144 1.248-.432l.4.816a2.092 2.092 0 0 1-.816.448 3.22 3.22 0 0 1-.96.144Zm-3.968-7.536V3.6h5.2v.944h-5.2Zm10.859 7.536c-.81 0-1.541-.181-2.192-.544a4.154 4.154 0 0 1-1.52-1.52c-.373-.65-.56-1.392-.56-2.224 0-.843.187-1.584.56-2.224.373-.64.88-1.141 1.52-1.504s1.37-.544 2.192-.544c.832 0 1.568.181 2.208.544.65.363 1.157.864 1.52 1.504.373.64.56 1.381.56 2.224 0 .832-.187 1.573-.56 2.224a4 4 0 0 1-1.52 1.52c-.65.363-1.387.544-2.208.544Zm0-1.008c.608 0 1.147-.133 1.616-.4.47-.277.837-.661 1.104-1.152.277-.501.416-1.077.416-1.728 0-.661-.139-1.237-.416-1.728a2.831 2.831 0 0 0-1.104-1.136 3.085 3.085 0 0 0-1.6-.416c-.597 0-1.13.139-1.6.416a2.94 2.94 0 0 0-1.12 1.136c-.277.49-.416 1.067-.416 1.728 0 .65.139 1.227.416 1.728.277.49.65.875 1.12 1.152.47.267.997.4 1.584.4Zm10.015 1.008c-.832 0-1.578-.181-2.24-.544a4.118 4.118 0 0 1-1.536-1.52c-.373-.65-.56-1.392-.56-2.224 0-.843.187-1.584.56-2.224a4 4 0 0 1 1.536-1.504c.662-.363 1.408-.544 2.24-.544.715 0 1.36.139 1.936.416.576.277 1.03.693 1.36 1.248l-.848.576a2.666 2.666 0 0 0-1.072-.944 3.203 3.203 0 0 0-1.392-.304c-.597 0-1.136.139-1.616.416-.48.267-.858.645-1.136 1.136-.277.49-.416 1.067-.416 1.728s.139 1.237.416 1.728c.278.49.656.875 1.136 1.152.48.267 1.019.4 1.616.4.502 0 .966-.101 1.392-.304a2.706 2.706 0 0 0 1.072-.928l.848.576a3.27 3.27 0 0 1-1.36 1.248c-.576.277-1.221.416-1.936.416Zm6.219-2.256.032-1.456L84.776 3.6h1.392l-3.696 3.536-.64.544-2.32 2.144ZM78.616 12V.128h1.136V12h-1.136Zm6.512 0-3.504-4.368.736-.88L86.52 12h-1.392Zm5.023.08c-.693 0-1.35-.096-1.968-.288-.618-.203-1.104-.453-1.456-.752l.512-.896c.342.256.779.48 1.312.672a5.184 5.184 0 0 0 1.68.272c.8 0 1.376-.123 1.728-.368.352-.256.528-.592.528-1.008 0-.31-.101-.55-.304-.72-.192-.181-.448-.315-.768-.4a8.452 8.452 0 0 0-1.072-.24c-.394-.064-.79-.139-1.184-.224a4.567 4.567 0 0 1-1.056-.368c-.32-.17-.581-.4-.784-.688-.192-.288-.288-.672-.288-1.152 0-.459.128-.87.384-1.232.256-.363.63-.645 1.12-.848.502-.213 1.11-.32 1.824-.32.544 0 1.088.075 1.632.224.544.139.992.325 1.344.56l-.496.912a3.69 3.69 0 0 0-1.2-.544 4.808 4.808 0 0 0-1.28-.176c-.757 0-1.317.133-1.68.4-.352.256-.528.587-.528.992 0 .32.096.57.288.752.203.181.464.325.784.432.33.096.688.176 1.072.24.395.064.784.144 1.168.24.395.085.752.208 1.072.368.33.15.592.368.784.656.203.277.304.645.304 1.104 0 .49-.138.917-.416 1.28-.266.352-.661.63-1.184.832-.512.192-1.136.288-1.872.288Z"/></svg>