<svg xmlns="http://www.w3.org/2000/svg" viewBox="0 0 110 72">
	<path fill="#fff" d="m40.7692 43.1026-5.9487-9 5.8974-9.0513h-4.3333l-3.9487 6.1538-3.8974-6.1538h-4.4872l5.8974 8.9743L24 43.1026h4.3846l3.9487-6.1795 3.9744 6.1795h4.4615ZM48.3443 29.5385c-3.4615 0-5.4358 1.8974-5.7948 4.1794h3.4872c.2051-.6923.8718-1.282 2.1538-1.282 1.2564 0 2.1795.641 2.1795 1.8718v.6154h-2.8974c-3.3847 0-5.4359 1.5641-5.4359 4.282 0 2.6667 2.0512 4.2052 4.6153 4.2052 1.718 0 3.1026-.6667 3.9231-1.7436v1.4359h3.4616v-8.6667c0-3.2308-2.2821-4.8974-5.6924-4.8974Zm-.6666 10.9743c-1.1539 0-1.8975-.5641-1.8975-1.4872 0-.9487.8206-1.5128 1.9744-1.5128H50.37v.5898c0 1.5384-1.2564 2.4102-2.6923 2.4102ZM64.4103 30.0769c-1.8462 0-3.359.6667-4.3334 2.0257.2564-2.4872 1.2564-3.718 3.7693-4.1026l5.0512-.7436V24l-5.4102.8974c-5.2308.8718-6.8462 4.359-6.8462 10.1795 0 5.2308 2.5385 8.3334 7.0257 8.3334 4.0256 0 6.5128-3.077 6.5128-6.7693 0-3.9743-2.3077-6.5641-5.7692-6.5641Zm-.9231 10.2052c-1.9487 0-3.0257-1.5642-3.0257-3.6667 0-2.0257 1.1282-3.4872 3.0513-3.4872 1.8718 0 2.9231 1.5128 2.9231 3.5128s-1.0256 3.6411-2.9487 3.6411ZM80.1647 29.5385c-1.9488 0-3.2052.8461-3.8718 1.8461v-1.5384h-3.5898V48h3.7436v-6.1795c.6667.9231 1.9231 1.5898 3.6154 1.5898 3.2564 0 5.8461-2.5641 5.8461-6.9231 0-4.4359-2.5897-6.9487-5.7435-6.9487Zm-.8975 10.641c-1.7436 0-2.8974-1.4103-2.8974-3.641v-.1026c0-2.2308 1.1538-3.6667 2.8974-3.6667 1.7436 0 2.8718 1.4616 2.8718 3.718s-1.1282 3.6923-2.8718 3.6923Z"/>
</svg>