<svg width="454" height="263" viewBox="0 0 454 263" fill="none" xmlns="http://www.w3.org/2000/svg">
<path d="M397.855 0.417328C397.359 0.629456 396.58 1.23056 396.19 1.76093C395.765 2.29126 394.951 2.78629 394.384 2.9277C393.322 3.1752 391.197 5.33203 391.197 6.1806C391.197 6.4281 391.091 6.64026 390.914 6.64026C390.772 6.64026 390.453 7.45348 390.205 8.47885C389.674 10.8125 390.17 11.166 393.676 10.9539L394.561 10.9185L393.676 11.5903C392.684 12.3682 392.047 12.4743 391.693 11.9085C391.586 11.6964 391.055 11.5903 390.524 11.6964C389.957 11.8025 389.355 11.661 389.001 11.3428C388.435 10.8478 388.257 10.8478 387.053 11.4135C386.31 11.7671 385.318 12.4035 384.822 12.8278C384.326 13.2521 383.477 13.7825 382.945 13.9593C382.379 14.1361 381.352 14.7725 380.643 15.4089C379.9 16.0454 378.448 17.3182 377.385 18.2729C376.323 19.2276 374.552 20.4297 373.49 20.9601C371.542 21.9147 365.698 27.2537 365.698 28.0669C365.698 28.2791 365.238 29.3398 364.636 30.4359C364.069 31.532 363.573 32.7341 363.573 33.0877C363.573 33.4413 363.184 33.9363 362.688 34.1484C362.192 34.3606 361.803 34.8556 361.803 35.2092C361.803 35.5627 361.413 36.1992 360.917 36.6235C360.28 37.1892 360.032 37.7549 360.032 38.6389C360.032 39.6996 360.138 39.8764 360.882 39.8764C361.342 39.8764 361.803 40.0885 361.909 40.3714C362.015 40.6542 362.44 40.7957 363.007 40.6896C364.423 40.4067 367.115 41.6442 367.115 42.5635C367.115 43.0585 366.832 43.4121 366.336 43.5182C365.875 43.6243 364.777 43.9778 363.892 44.3314C362.476 44.8618 362.157 44.8971 361.661 44.5082C361.13 44.0839 361.13 43.9425 361.626 43.4121C362.086 42.8818 362.051 42.7403 361.13 41.8564L360.138 40.9017L359.182 41.9978C358.261 43.1293 357.978 44.2607 358.58 44.6143C358.757 44.7204 359.005 45.5689 359.147 46.4529C359.359 47.9733 359.288 48.15 358.297 49.034C357.73 49.529 357.199 50.3422 357.128 50.8372C357.057 51.4029 356.774 51.7565 356.313 51.8272C355.286 52.004 354.72 52.9233 354.72 54.373C354.72 55.2216 354.472 55.8933 354.011 56.3176C353.622 56.6712 353.303 57.3076 353.303 57.6966C353.303 58.4037 352.772 58.8987 350.824 59.9241C350.01 60.3484 349.832 60.2777 348.451 58.8987L346.964 57.4491L344.591 57.6612C342.36 57.838 342.183 57.9087 340.872 59.3584C338.464 62.0809 337.366 63.8134 337.366 64.9802C337.366 65.7935 336.977 66.5006 335.844 67.7028C334.321 69.2939 334.285 69.2939 333.081 68.8696C332.019 68.4806 331.665 68.516 330.602 69.0817C329.965 69.4353 329.221 69.6828 329.009 69.6474C328.796 69.6121 328.336 69.8949 327.982 70.2839C327.344 70.991 326.388 71.2385 326.388 70.7082C326.388 70.5667 326.636 70.1778 326.919 69.7889C327.379 69.1878 327.344 69.0464 326.53 68.4099L325.644 67.7028L323.625 68.5867C321.359 69.5414 320.58 70.6021 320.58 72.865C320.544 74.1025 320.474 74.2086 319.659 74.0318C319.128 73.9611 318.49 74.1025 318.065 74.4561C317.499 74.9157 317.534 74.845 318.172 74.1378C319.872 72.1932 318.951 71.7335 315.728 73.0064C313.886 73.7136 313.072 74.2439 312.718 74.9511C312.151 76.0825 311.23 76.6482 309.991 76.6482C309.53 76.6482 308.858 76.9665 308.468 77.3907C307.901 78.0272 307.866 78.1686 308.326 78.4515C309.955 79.4061 309.955 79.4061 309.105 80.2901C308.114 81.3508 308.043 83.1894 308.999 83.7198C309.424 83.9319 309.778 83.9319 309.885 83.7551C310.097 83.4015 312.576 85.4169 312.576 85.9119C312.576 86.0534 312.222 86.1948 311.762 86.1948C311.018 86.1948 309.035 87.8212 309.035 88.3869C309.035 88.5284 309.318 88.7052 309.672 88.7759C310.168 88.9173 310.168 88.9527 309.566 88.988C309.176 89.0234 308.255 89.2002 307.547 89.4123C306.166 89.7659 305.139 91.1095 305.139 92.4884C305.139 93.4784 302.943 93.8674 301.881 93.0895C301.42 92.8067 300.641 92.5591 300.11 92.5591C299.26 92.5591 299.118 92.7006 299.118 93.5492C299.118 94.0795 299.296 94.716 299.543 94.9635C299.933 95.3524 301.243 99.0296 301.243 99.8074C301.243 99.9842 300.5 100.196 299.543 100.232C298.162 100.302 297.666 100.126 296.569 99.2417C295.86 98.676 295.01 98.2164 294.727 98.2164C294.444 98.2164 294.16 97.8628 294.09 97.4031C294.019 96.7667 293.771 96.6253 292.921 96.696C291.858 96.7667 291.858 96.7667 292.638 96.1656C293.877 95.1756 293.346 92.5238 291.965 92.9834C291.292 93.2309 289.804 91.2863 290.088 90.4731C290.3 89.8013 289.592 89.4477 287.502 89.2002C287.042 89.1295 286.475 88.9173 286.192 88.6698C285.838 88.3869 285.555 88.4223 284.988 88.9173C284.563 89.2355 284.244 89.7659 284.244 90.0134C284.244 90.2963 284.032 90.4377 283.819 90.3316C283.571 90.2609 283.076 90.3316 282.721 90.5084C282.226 90.7559 281.871 90.6852 281.411 90.2609C281.057 89.9427 280.526 89.7305 280.278 89.8366C280.03 89.9073 279.534 89.7659 279.215 89.483C278.684 89.0234 278.578 89.0941 278.259 90.3316C277.728 92.1349 277.763 92.347 278.578 93.8674C279.534 95.706 279.499 96.3778 278.33 96.6606C277.763 96.802 276.878 97.2971 276.347 97.7567C275.072 98.7821 274.753 98.7821 274.257 97.686C273.832 96.7313 273.266 96.8374 273.266 97.8981C273.266 98.4992 273.053 98.6053 272.132 98.4992C271.389 98.4285 270.964 98.2164 270.964 97.8628C270.928 97.5799 270.787 97.0496 270.574 96.696C270.255 96.1303 270.078 96.0949 268.095 96.5899C266.962 96.8728 265.545 97.191 265.014 97.2971C264.447 97.4385 263.314 98.181 262.429 98.9942C260.977 100.338 260.87 100.373 260.87 99.6307C260.87 99.171 260.587 98.4992 260.268 98.1456C259.666 97.4738 259.631 97.4738 258.746 98.5699C257.931 99.56 257.754 99.6307 256.869 99.3124C256.302 99.1003 255.275 98.9235 254.531 98.9235C253.256 98.9235 253.221 98.8882 253.363 97.8981C253.433 97.3324 254.142 96.1303 254.921 95.1756C256.479 93.2663 257.329 91.8166 257.329 90.968C257.329 90.6852 257.506 90.1195 257.754 89.7305C258.108 89.1648 258.073 88.882 257.4 87.998C256.975 87.3969 256.621 86.4776 256.621 85.9119C256.621 84.8866 254.956 82.8712 254.212 83.0833C254.035 83.154 253.469 82.6237 253.008 81.9519C252.371 81.0679 251.911 80.7497 251.308 80.8204C250.884 80.8558 250.317 80.7497 250.069 80.5376C249.786 80.3254 249.432 80.3608 248.971 80.7144C248.617 80.9972 247.944 81.2447 247.519 81.2447C247.094 81.2447 246.315 81.4215 245.819 81.669C245.04 82.0226 244.792 81.9519 244.084 81.2801C243.34 80.5729 242.986 80.5022 241.676 80.7144L240.153 80.9619L240.967 80.1133C241.569 79.4415 241.711 79.0172 241.534 78.0979C241.357 77.3554 241.109 77.0018 240.719 77.0372C240.401 77.0725 239.728 77.0018 239.197 76.8604C238.417 76.6482 237.993 76.7897 236.824 77.7443C234.664 79.4769 233.212 83.8965 234.38 85.0633C235.018 85.6998 234.132 86.1948 232.291 86.1948C231.051 86.1948 230.803 86.3009 230.874 86.9019C230.91 87.2909 231.157 87.6798 231.476 87.7859C231.866 87.9627 231.689 88.1395 230.874 88.493C230.237 88.7759 229.705 89.1648 229.705 89.377C229.705 89.5538 229.28 89.7305 228.785 89.7305C228.041 89.7305 227.935 89.5891 228.112 89.0234C228.289 88.4223 228.183 88.3162 227.226 88.3162C226.624 88.3162 226.058 88.5284 225.951 88.8112C225.845 89.0941 225.066 89.4123 224.216 89.5538C222.516 89.8013 220.675 91.0388 221.489 91.3923C222.198 91.6752 220.214 92.7713 218.444 93.0895C217.629 93.2309 216.885 93.4784 216.744 93.6552C216.637 93.832 216.035 94.2209 215.362 94.4685C214.725 94.7513 214.017 95.317 213.769 95.706C213.521 96.201 213.025 96.4485 212.388 96.4485C211.325 96.4485 211.219 96.7313 210.865 100.161C210.829 100.55 210.369 101.222 209.873 101.646L208.988 102.459L210.156 103.449C210.759 104.015 211.29 104.545 211.29 104.651C211.29 105.182 204.915 105.854 202.117 105.641C200.24 105.5 199.674 105.571 199.001 106.101C198.151 106.773 197.938 108.046 198.505 109.142C198.753 109.566 198.682 110.238 198.363 111.228C197.868 112.607 197.903 112.748 198.788 114.092C199.32 114.905 199.851 115.542 200.028 115.542C200.311 115.542 201.374 117.416 201.374 118.017C201.374 118.653 200.099 118.406 199.39 117.628C199.036 117.203 198.753 116.532 198.788 116.143C198.895 115.011 196.132 113.067 194.857 113.314C194.043 113.491 193.901 113.385 194.007 112.854C194.078 112.465 193.759 112.006 193.157 111.688C192.201 111.157 192.13 111.157 191.033 112.289C189.97 113.349 189.935 113.491 190.466 113.809C190.82 113.986 191.21 114.163 191.351 114.163C191.67 114.127 192.237 115.966 191.989 116.213C191.882 116.284 191.351 115.966 190.82 115.435C189.899 114.552 189.793 114.516 189.049 115.047C188.306 115.542 188.27 115.542 188.447 114.587C188.518 114.057 188.695 112.536 188.801 111.193L189.014 108.824H188.058C187.243 108.824 187.172 108.753 187.597 108.258C187.987 107.763 187.916 107.586 187.208 107.056C186.322 106.384 186.322 106.384 186.074 107.339C185.897 107.94 185.968 108.47 186.287 108.824C186.889 109.495 186.783 112.819 186.181 113.562C185.897 113.88 185.366 114.127 184.941 114.127C184.481 114.127 183.454 114.834 182.498 115.824C181.01 117.345 180.868 117.592 181.329 118.017C181.648 118.264 181.895 118.865 181.895 119.36C181.895 119.82 182.073 120.845 182.32 121.588C182.639 122.719 182.639 123.073 182.179 123.568C181.223 124.699 179.771 127.952 179.771 129.013C179.771 129.579 179.594 130.356 179.381 130.71C178.708 131.735 179.275 133.22 180.266 133.22C180.762 133.22 181.187 133.397 181.258 133.645C181.364 133.928 181.718 133.892 182.533 133.503C183.56 132.973 183.737 132.973 185.083 133.645C186.676 134.458 187.916 135.801 187.916 136.791C187.916 138.064 187.279 137.746 186.464 136.049C185.614 134.316 185.614 134.316 183.808 134.281C182.25 134.281 181.895 134.423 180.868 135.483C179.735 136.65 179.7 136.791 179.912 138.665L180.16 140.61L178.566 142.343C177.681 143.297 176.937 144.393 176.937 144.782C176.937 145.277 176.548 145.666 175.804 145.949C175.167 146.197 174.317 146.515 173.927 146.656C173.538 146.833 172.865 147.081 172.44 147.187C171.944 147.328 171.625 147.682 171.625 148.106C171.625 148.919 170.846 148.99 170.209 148.247C169.961 147.964 169.465 147.717 169.111 147.717C168.225 147.717 166.384 146.586 165.711 145.631C164.932 144.499 165.392 144.358 166.667 145.277C167.588 145.949 167.871 146.02 168.438 145.666C168.827 145.454 169.359 145.348 169.677 145.454C170.704 145.878 171.838 145.242 172.936 143.686C173.573 142.767 174.671 141.812 175.415 141.459C176.583 140.928 176.76 140.645 176.867 139.514C176.937 138.63 177.221 138.064 177.787 137.675C178.991 136.898 179.133 135.554 178.142 134.599C177.115 133.645 177.079 132.655 178 129.755C178.389 128.518 178.708 127.068 178.708 126.538C178.708 126.043 179.098 125.053 179.558 124.346C180.054 123.638 180.621 122.083 180.833 120.881C181.187 118.936 181.152 118.582 180.656 118.017C179.912 117.203 180.196 116.107 181.541 114.658C182.073 114.057 182.639 113.031 182.781 112.359C182.923 111.688 183.206 110.91 183.383 110.662C183.631 110.379 183.631 109.743 183.312 108.647C182.923 107.233 182.745 107.056 181.86 107.056C181.329 107.056 180.762 106.879 180.656 106.702C180.55 106.49 180.089 106.349 179.629 106.349C179.169 106.349 178.531 106.03 178.177 105.641C177.61 105.005 177.504 105.005 176.654 105.571C176.158 105.889 175.238 107.303 174.458 109C173.042 112.041 171.767 113.42 169.607 114.198C168.65 114.552 168.155 115.011 167.694 116.072C167.128 117.274 167.128 117.557 167.553 117.875C167.977 118.193 167.977 118.441 167.553 119.643C167.269 120.386 167.057 121.234 167.021 121.517C167.021 121.8 166.525 122.436 165.923 122.967C164.826 123.851 164.826 123.886 165.357 124.982C165.676 125.583 166.207 126.149 166.525 126.29C166.95 126.467 167.057 126.785 166.88 127.669C166.738 128.482 166.88 129.154 167.411 130.003C168.048 131.099 168.084 131.24 167.588 131.523C167.269 131.7 167.021 132.23 167.021 132.69C167.021 133.15 166.844 133.645 166.632 133.786C166.136 134.069 165.605 133.291 165.605 132.301C165.605 131.877 164.826 130.533 163.834 129.296C162.878 128.058 161.78 126.573 161.461 126.007C160.434 124.31 155.653 119.254 155.157 119.36C154.909 119.396 154.52 119.183 154.272 118.901C153.989 118.547 153.528 118.441 152.962 118.582C152.182 118.794 152.112 118.759 152.43 118.123C152.678 117.698 152.678 117.239 152.466 116.921C152.289 116.673 152.147 116.072 152.147 115.648C152.147 114.552 151.403 113.067 150.872 113.067C150.624 113.067 149.987 113.243 149.491 113.491C148.606 113.88 148.57 114.021 148.783 115.506C148.924 116.355 149.243 117.274 149.526 117.557C149.81 117.84 150.022 118.229 150.022 118.406C150.022 118.582 150.341 118.724 150.73 118.724C151.12 118.724 151.439 118.865 151.439 119.077C151.439 119.254 151.297 119.431 151.085 119.431C150.908 119.431 150.73 120.315 150.73 121.376C150.73 123.073 150.66 123.32 150.022 123.32C149.633 123.32 149.314 123.568 149.314 123.851C149.314 124.169 148.995 124.381 148.429 124.381C147.933 124.381 147.437 124.628 147.331 124.911C147.189 125.194 146.977 125.442 146.799 125.442C146.233 125.442 146.445 124.558 147.189 123.921C147.579 123.603 147.897 123.108 147.897 122.861C147.897 122.189 146.622 121.093 146.162 121.34C145.985 121.482 145.064 121.694 144.108 121.871C142.55 122.189 142.373 122.118 141.204 121.128C139.964 120.032 139.327 119.961 135.998 120.668C134.723 120.951 134.369 120.633 134.688 119.502C134.829 118.971 135.148 118.724 135.75 118.724C136.565 118.724 136.6 118.618 136.387 117.592C136.033 116.001 135.963 115.895 134.829 115.895C133.306 115.895 131.606 116.602 131.606 117.239C131.571 117.734 131.5 117.734 131.04 117.133C130.721 116.708 130.048 116.426 129.198 116.355C123.496 116.037 121.336 116.001 121.336 116.284C121.336 116.426 121.088 116.496 120.805 116.39C120.522 116.249 119.707 116.284 119.034 116.39C118.113 116.567 117.795 116.814 117.795 117.309C117.795 118.441 116.661 118.794 115.032 118.158C113.757 117.628 113.616 117.451 113.403 116.001C113.049 113.243 113.085 113.137 114.466 112.854C115.493 112.678 115.882 112.784 116.591 113.455L117.441 114.269L118.22 113.526C118.715 113.031 118.999 112.147 119.14 111.016C119.282 109.531 119.14 109.036 118.468 108.046C116.484 105.217 115.493 104.227 114.572 104.227C113.687 104.227 113.651 104.262 113.828 106.101C113.97 107.834 113.899 108.046 113.049 108.576C112.553 108.93 112.128 109.425 112.128 109.708C112.128 110.026 111.739 110.415 111.278 110.627C110.358 111.051 109.649 112.289 109.649 113.455C109.649 115.718 106.816 117.451 105.754 115.824C105.47 115.4 104.868 114.622 104.479 114.127C103.735 113.279 103.629 113.279 102.071 113.703C100.689 114.057 100.264 114.057 99.4499 113.632C98.7416 113.243 98.2812 113.243 97.7854 113.491C97.4312 113.703 96.3688 113.844 95.4126 113.809L93.7127 113.774V115.153C93.7127 115.93 93.5002 116.708 93.1814 116.956C92.8627 117.203 92.6856 117.734 92.721 118.158C92.7919 118.724 92.6502 118.865 92.119 118.794C91.7294 118.724 91.269 118.441 91.0565 118.123C90.8795 117.804 90.3483 117.133 89.9233 116.602C89.3921 115.93 88.9671 114.728 88.6838 112.925C88.2942 110.344 88.2234 110.238 87.338 110.238C85.886 110.238 84.859 111.582 84.859 113.526C84.859 114.41 85.0006 115.259 85.2131 115.365C85.8506 115.754 85.6027 117.133 84.8235 117.628C84.1152 118.052 83.9382 117.981 82.8049 116.814C81.6362 115.683 81.5654 115.506 81.9904 114.693C82.3799 113.986 82.3799 113.562 81.9195 112.253C81.4237 110.768 81.4237 110.592 82.0258 110.061C82.3799 109.743 82.7695 108.894 82.9111 108.187C83.1945 106.702 84.3277 105.288 85.2839 105.288C86.5235 105.288 88.2234 101.257 87.4088 100.232C86.9484 99.666 87.3026 97.5092 87.8692 97.5092C88.1171 97.5092 88.4359 98.0749 88.5421 98.7467C88.8608 100.373 90.9857 105.005 91.7294 105.606C92.0482 105.854 92.2961 106.596 92.2961 107.268C92.2961 108.576 93.4648 109.672 96.1917 110.91C98.2812 111.864 102.283 111.617 103.558 110.45C105.86 108.399 107.312 103.272 106.002 101.823C105.293 101.01 104.975 99.2771 104.904 95.4938C104.868 92.842 104.762 92.2056 104.054 91.357C103.629 90.7913 103.275 89.978 103.275 89.483C103.275 89.0234 103.027 88.5637 102.743 88.4577C102.46 88.3162 102.212 87.892 102.212 87.4677C102.212 87.0787 101.752 86.3362 101.185 85.8412C100.619 85.3462 100.087 84.4623 99.9457 83.7905C99.7686 82.7297 100.158 82.2347 100.619 83.0126C100.725 83.1894 101.15 83.543 101.539 83.7551C102.248 84.1087 102.248 84.038 102 82.4115C101.716 80.5376 101.433 80.184 99.9457 80.184C99.0603 80.184 98.954 80.1133 99.1665 79.2293C99.4144 78.31 99.4144 78.31 98.5291 78.9111C97.8916 79.3001 97.4312 79.3708 97.0062 79.1586C96.6521 78.9818 95.5542 78.6636 94.5626 78.4161C92.7919 78.0272 92.6502 78.0625 90.0295 79.3708L87.338 80.679V82.5883C87.338 83.6137 87.0901 84.9219 86.8068 85.4876C86.311 86.4776 86.0985 86.5484 84.3632 86.5484C82.5924 86.5484 82.3799 86.6544 81.1758 87.9627C80.4675 88.7405 79.9009 89.6245 79.9009 89.978C79.9009 90.2963 79.3343 91.5338 78.6614 92.7713C77.776 94.327 77.2448 94.9281 76.8906 94.822C76.6073 94.716 75.6865 95.1049 74.872 95.706C74.0574 96.3071 73.1012 96.802 72.7471 96.802C72.2513 96.802 72.1096 97.0849 72.1096 98.0396C72.1096 98.8174 71.8971 99.3832 71.5784 99.4892C71.2951 99.6307 71.0472 100.126 71.0472 100.691C71.0472 101.964 70.0202 102.813 68.4973 102.813C67.2578 102.813 67.2578 102.813 67.0099 104.651C66.9037 105.677 66.7974 107.197 66.7974 108.046C66.7974 110.344 66.2308 110.485 55.748 110.627C50.8962 110.698 46.9651 110.839 46.9651 110.91C46.9651 111.016 47.3193 111.44 47.7443 111.9C48.3817 112.572 48.488 113.067 48.4171 114.552C48.3463 116.072 48.4526 116.461 49.09 116.956C49.6212 117.345 49.8337 117.804 49.7275 118.406L49.5858 119.254L49.1609 118.264C48.913 117.663 48.2401 117.062 47.4964 116.744C46.8235 116.461 46.2568 116.107 46.2568 115.93C46.2568 115.789 45.8319 115.471 45.3006 115.223C44.4153 114.834 44.2382 114.87 43.6007 115.612C43.2112 116.072 42.432 116.461 41.83 116.496C39.2801 116.673 38.1469 117.062 37.2615 118.052C36.7303 118.618 36.1282 119.077 35.8449 119.077C35.5616 119.077 35.172 119.537 34.9595 120.138C34.7116 120.916 34.3929 121.199 33.7554 121.199C32.7284 121.199 31.7368 122.224 31.7368 123.214C31.7368 123.745 31.3118 124.169 30.3202 124.628C29.1515 125.159 28.9036 125.406 29.0098 126.078C29.1161 126.644 28.7619 127.351 27.9828 128.341C26.5662 130.003 26.5308 130.392 27.5224 132.16C28.1599 133.291 28.2307 133.68 27.912 134.599C27.5578 135.554 27.6287 135.695 28.3015 135.908C29.5411 136.261 30.3202 137.145 30.3202 138.135C30.2848 139.125 28.6557 141.14 27.5932 141.494C27.1329 141.635 26.637 142.625 25.9287 144.818C25.3621 146.515 24.7955 148.141 24.6184 148.495C24.4413 148.884 24.5122 149.237 24.8663 149.52C25.4329 149.98 25.2913 152.137 24.6538 152.808C24.1226 153.374 22.706 152.702 22.104 151.606C21.3602 150.298 20.1207 150.263 19.4833 151.536C19.2708 151.995 18.5979 152.879 17.9958 153.48C16.1897 155.39 16.0126 156.061 16.898 157.299C17.4646 158.112 17.8542 158.324 18.4208 158.183C18.952 158.041 19.3416 158.218 19.5895 158.678C19.8374 159.031 20.3686 159.385 20.829 159.456C22.6706 159.703 22.9539 163.734 21.1832 164.512C20.7582 164.689 20.2978 165.113 20.227 165.431C20.1207 165.785 19.7666 166.138 19.4833 166.244C19.0229 166.421 19.0937 166.704 19.8728 167.977C20.9707 169.886 21.0061 170.947 19.9082 172.432C18.9874 173.669 19.0229 174.695 20.0499 175.402C20.3686 175.649 20.7582 176.18 20.8998 176.604C21.0415 177.028 21.856 177.948 22.7414 178.655C24.2643 179.928 24.3351 180.034 24.2643 181.66C24.1934 183.181 24.2997 183.534 25.4684 184.807C26.1767 185.62 26.7787 186.469 26.7787 186.752C26.7787 186.999 27.0266 187.424 27.3099 187.671C27.5932 187.919 27.8411 188.449 27.8411 188.873C27.8411 189.297 28.0182 189.828 28.2307 190.04C28.939 190.747 28.2307 191.914 27.062 191.914C25.7163 191.914 23.5914 193.823 23.556 195.096C23.556 195.626 23.1664 196.298 22.4935 196.829L21.4311 197.677L20.0499 196.334C18.952 195.273 18.4208 195.025 17.1105 194.919C15.4106 194.813 13.4982 195.662 13.1086 196.687C12.8961 197.218 14.2065 198.596 14.9502 198.632C15.1272 198.632 15.623 198.879 16.0126 199.198C16.6855 199.728 16.6855 199.728 15.9418 199.516C15.5522 199.41 14.4898 199.268 13.6044 199.198C12.719 199.127 11.5858 198.809 11.09 198.455C9.60253 197.5 8.92965 197.96 9.21297 199.869L9.46087 201.46H7.54847C6.09647 201.46 5.38817 201.637 4.64446 202.238L3.65285 203.016L3.01538 202.238C2.30708 201.319 1.20922 201.248 0.536343 202.026C-0.207367 202.945 -0.171952 205.88 0.607173 206.906C0.961321 207.365 1.28005 208.214 1.28005 208.779C1.28005 209.345 1.59879 210.406 1.98835 211.184C2.51957 212.245 2.69665 213.27 2.69665 215.533C2.69665 218.432 3.05079 219.846 3.7945 219.846C4.71529 219.846 8.00887 224.478 8.00887 225.751C8.00887 225.999 8.61092 226.6 9.35463 227.095C10.842 228.085 12.6128 230.489 12.6128 231.514C12.6128 231.868 12.8607 232.328 13.144 232.575C13.4273 232.823 13.6752 233.53 13.6752 234.166C13.6752 235.439 14.4189 236.252 15.8709 236.606C16.4022 236.712 17.1105 237.207 17.4292 237.702C17.7479 238.197 18.2437 238.586 18.4916 238.586C18.775 238.586 18.9874 238.763 18.9874 239.01C18.9874 239.222 19.2354 239.682 19.5541 240.036C20.0145 240.566 20.0499 240.849 19.6957 241.839C19.3062 242.864 19.3416 243.182 20.0145 244.243C20.404 244.915 20.7582 245.834 20.7582 246.294C20.7582 246.718 20.9707 247.178 21.2186 247.284C21.5019 247.39 21.9977 248.734 22.3873 250.325C22.8831 252.481 23.2372 253.224 23.7684 253.436C24.7601 253.825 28.2661 253.613 29.1869 253.118C30.0369 252.658 30.2139 251.385 30.0014 246.471C29.8952 244.349 30.0369 243.677 30.7097 242.511C31.1347 241.697 31.6305 241.061 31.8076 241.061C31.9493 241.061 32.0909 240.884 32.0909 240.637C32.0909 240.424 32.3388 239.965 32.6221 239.647C32.9409 239.293 33.2596 238.232 33.4013 237.207C33.5783 235.757 33.4721 235.262 32.9763 234.697C31.9847 233.6 32.5159 233.035 34.8533 232.752C36.624 232.54 37.1552 232.328 38.3239 231.196L39.6697 229.853L40.7675 230.489C42.1841 231.373 47.3193 231.444 48.1692 230.595C48.8775 229.888 48.8775 229.853 48.0276 228.792C47.036 227.554 47.0714 226.741 48.063 227.342C48.665 227.731 48.8421 227.696 49.3025 227.095C49.6921 226.564 49.7629 225.716 49.5858 223.205C49.3733 220.235 49.2671 219.952 48.1692 218.786C47.0714 217.584 47.036 217.477 47.3901 216.098C47.7443 214.79 47.7088 214.543 47.0006 213.623L46.186 212.598L47.1422 211.82C47.638 211.361 48.3817 211.007 48.7713 211.007C49.8337 211.007 50.8608 210.371 50.8608 209.699C50.8608 208.815 52.6315 207.118 53.5523 207.118C53.9773 207.118 54.6501 206.729 55.0397 206.234C55.4293 205.739 55.9959 205.35 56.2792 205.35C56.7396 205.35 56.8105 205.668 56.6334 207.012C56.4209 208.956 57.0229 209.805 58.7937 210.017C59.679 210.123 59.927 209.911 60.5998 208.709C61.3435 207.436 61.556 207.294 62.9372 207.188C63.7872 207.118 64.7788 206.799 65.1329 206.481C65.6641 206.022 65.9475 205.986 66.9745 206.375C68.3203 206.835 69.4535 206.658 70.4451 205.774C71.3305 204.996 72.2513 205.597 72.4638 207.153C72.6409 208.284 72.7117 208.355 74.0929 208.355C75.5449 208.355 76.7136 208.956 76.7136 209.734C76.7136 209.946 77.2802 210.441 78.0239 210.83C79.1218 211.431 79.4051 211.891 80.1488 214.189C80.8571 216.346 80.9279 216.947 80.5738 217.584C80.3613 218.043 80.255 218.644 80.3613 218.927C80.6446 219.67 81.8841 219.634 82.3799 218.856C82.6987 218.291 82.7695 218.291 83.3361 218.998C83.6903 219.422 84.1507 220.059 84.3632 220.412C84.7881 221.155 87.1255 221.225 88.4004 220.554C89.0025 220.235 89.3566 220.306 90.2774 220.872C90.9149 221.261 91.5878 221.897 91.8357 222.286C92.2252 222.887 92.4023 222.922 93.5002 222.604C94.9876 222.145 95.8375 222.64 95.8375 223.948C95.8375 224.408 96.4042 225.574 97.1125 226.564C98.1749 228.049 98.5645 228.332 99.5207 228.332C100.158 228.332 100.831 228.155 101.008 227.979C101.256 227.731 101.61 227.979 102.141 228.686C102.85 229.605 103.168 229.747 104.727 229.747C106.356 229.747 106.674 229.605 107.737 228.438C109.118 226.953 109.154 226.812 108.41 226.211C108.126 225.963 107.879 225.574 107.879 225.327C107.879 225.079 107.312 224.195 106.639 223.418C105.258 221.72 105.329 220.942 106.852 220.978C108.268 221.013 109.012 220.235 109.047 218.574C109.118 217.301 109.224 217.195 110.216 217.088C110.924 217.018 111.491 217.23 111.951 217.725C112.766 218.609 113.616 218.644 114.43 217.725C115.068 217.018 115.068 216.982 114.041 215.851C113.014 214.755 112.907 214.26 113.155 211.785C113.226 211.113 114.395 211.29 115.776 212.209C116.803 212.916 117.582 213.093 120.309 213.235C122.151 213.341 124.346 213.588 125.232 213.836C127.286 214.366 128.313 214.366 129.34 213.8C129.977 213.482 130.402 213.447 131.075 213.765C131.571 214.012 132.917 214.189 134.015 214.189C135.113 214.189 136.246 214.331 136.494 214.472C137.06 214.826 140.637 214.154 141.239 213.553C141.806 212.987 142.656 213.022 143.506 213.659C143.86 213.942 144.604 214.189 145.1 214.189C145.631 214.189 146.127 214.401 146.233 214.684C146.339 214.932 146.977 215.25 147.649 215.391C148.464 215.533 148.96 215.851 149.066 216.346C149.314 217.265 148.96 219.528 148.499 220.094C148.322 220.341 148.287 220.942 148.393 221.402C148.641 222.427 150.305 222.922 151.403 222.357C152.289 221.862 152.607 222.321 152.289 223.524C152.112 224.301 152.218 224.478 153.032 224.796C153.705 225.044 154.13 225.044 154.449 224.796C154.732 224.549 155.228 224.584 156.007 224.903L157.141 225.362L156.291 225.751C155.476 226.14 154.803 227.802 155.228 228.438C155.334 228.615 156.007 228.686 156.716 228.615C157.424 228.509 158.274 228.615 158.593 228.827C159.053 229.075 159.513 229.039 160.47 228.58C161.178 228.261 161.957 227.979 162.205 227.979C162.453 227.979 162.949 227.66 163.303 227.271C163.728 226.812 164.401 226.564 165.251 226.564C166.03 226.564 166.95 226.281 167.446 225.857C168.296 225.221 168.792 225.221 168.792 225.928C168.792 226.105 168.402 226.388 167.907 226.564C166.667 227.024 166.667 228.58 167.907 229.039C168.402 229.216 169.111 229.888 169.429 230.524C169.748 231.125 170.527 232.186 171.129 232.893C172.404 234.378 173.042 236.04 173.042 237.879C173.042 238.621 173.29 239.399 173.573 239.647C173.856 239.894 174.104 240.495 174.104 241.026C174.104 241.521 174.423 242.475 174.813 243.112C175.202 243.748 175.521 244.491 175.521 244.773C175.521 245.622 176.619 248.627 177.15 249.229C177.858 250.006 179.381 249.653 179.841 248.627C180.373 247.496 181.541 247.496 181.541 248.627C181.541 249.724 183.383 251.315 184.375 251.067C184.764 250.961 185.295 251.067 185.579 251.279C186.145 251.774 188.093 251.421 188.66 250.749C188.872 250.466 189.333 250.254 189.651 250.289C190.608 250.325 193.405 252.552 193.512 253.365C193.582 253.79 194.397 254.921 195.353 255.911C196.309 256.901 197.124 258.068 197.195 258.492C197.266 259.093 197.726 259.412 199.249 259.907C201.019 260.472 201.303 260.472 202.578 259.977C203.321 259.659 203.959 259.447 204.03 259.518C204.065 259.588 204.455 260.295 204.915 261.109C206.013 263.089 207.571 263.442 209.307 262.099C210.121 261.498 210.9 261.215 211.892 261.215C212.777 261.215 213.521 261.003 213.769 260.649C214.052 260.366 214.76 259.907 215.433 259.624C216.071 259.341 216.602 258.881 216.602 258.598C216.602 258.28 216.885 258.033 217.275 258.033C217.629 258.033 218.16 257.75 218.408 257.431C219.258 256.406 222.02 254.85 223.012 254.85C223.65 254.85 224.004 254.638 224.145 254.143C224.252 253.684 224.641 253.436 225.208 253.436C225.668 253.436 226.27 253.189 226.518 252.906C227.12 252.199 227.368 252.234 228.643 253.295C229.599 254.108 229.847 254.179 230.626 253.825C232.007 253.224 232.397 253.33 234.309 255.027C236.434 256.936 237.745 257.29 242.986 257.538L247.023 257.75L248.829 256.194C250.246 254.956 250.6 254.461 250.6 253.578C250.6 252.976 250.352 252.269 250.069 252.022C249.786 251.774 249.538 251.138 249.538 250.607C249.538 250.077 249.29 249.441 249.007 249.193C248.369 248.663 248.652 247.213 249.573 246.152C249.963 245.763 250.246 245.268 250.246 245.092C250.246 244.88 250.706 244.278 251.273 243.748C252.265 242.793 252.371 242.793 253.115 243.324C253.575 243.642 254.602 243.89 255.417 243.89C256.373 243.89 257.081 244.102 257.471 244.561C257.966 245.127 258.285 245.162 259.454 244.88C262.252 244.172 264.164 245.198 265.899 248.451C266.608 249.724 268.91 250.926 270.68 250.961C272.699 250.961 275.532 250.183 276.382 249.405C277.515 248.415 281.765 247.779 283.536 248.38C284.209 248.627 285.696 248.804 286.794 248.804C288.636 248.84 288.919 248.946 289.592 249.9C290.761 251.421 292 251.704 295.931 251.315C302.447 250.607 302.377 250.643 303.899 249.158C304.679 248.415 305.883 247.567 306.556 247.284C308.291 246.577 310.805 244.314 310.805 243.501C310.805 242.687 313.036 240.142 314.347 239.47C315.161 239.046 315.445 239.081 316.72 239.647L318.136 240.283L319.942 239.293C321.607 238.374 321.961 238.338 323.98 238.586C327.486 238.975 329.788 237.949 330.815 235.51C331.098 234.838 331.7 234.202 332.231 233.989C333.435 233.53 333.435 231.939 332.196 230.1C331.381 228.898 331.311 228.544 331.629 227.731C331.842 227.165 332.09 225.68 332.231 224.337C332.338 223.029 332.585 221.579 332.798 221.155C333.329 219.952 332.656 217.725 331.346 216.487C330.425 215.603 330.177 215.497 329.575 215.886C328.725 216.417 328.725 216.346 329.469 213.906C330 212.315 330.354 211.785 331.523 211.042C332.338 210.547 333.719 209.522 334.639 208.744C336.375 207.33 337.933 206.835 341.439 206.552C342.431 206.481 344.237 206.34 345.512 206.198C347.637 206.022 347.955 206.092 349.337 206.976C350.151 207.507 350.824 208.178 350.824 208.426C350.824 208.709 351.284 209.098 351.816 209.345C353.374 210.017 355.711 212.068 355.924 212.952C356.065 213.517 356.49 213.871 357.199 214.012C358.261 214.26 361.236 216.876 362.263 218.467C363.007 219.67 364.777 220.059 366.513 219.316C367.186 219.033 367.859 218.644 368 218.432C368.284 217.972 372.25 217.972 373.985 218.467C374.942 218.75 375.437 218.75 375.721 218.467C375.933 218.255 376.358 218.079 376.677 218.079C377.491 218.079 379.156 219.917 379.156 220.836C379.156 221.367 379.581 221.826 380.572 222.321C382.379 223.241 383.76 223.241 384.008 222.321C384.114 221.932 384.362 221.614 384.61 221.614C384.822 221.614 385.849 221.049 386.841 220.377C388.47 219.281 388.682 219.033 388.505 218.149C388.364 217.442 388.647 216.629 389.568 215.073C391.976 210.936 392.189 210.866 394.172 213.058C395.34 214.366 395.518 214.684 395.163 215.179C394.349 216.311 394.313 216.7 394.951 217.407C395.73 218.255 396.58 220.412 396.651 221.65C396.651 222.145 396.863 222.781 397.076 223.064C397.572 223.665 397.961 225.504 398.067 227.448C398.103 228.226 398.315 229.181 398.528 229.605C399.13 230.63 398.244 231.868 396.899 231.868C395.588 231.868 394.03 233.105 394.03 234.131C394.03 234.555 393.641 235.298 393.145 235.757C391.905 236.924 391.941 238.409 393.216 239.01C393.747 239.258 394.526 240 394.915 240.637C395.305 241.308 396.297 242.617 397.147 243.571C398.776 245.516 398.988 246.506 398.103 248.592C397.324 250.466 397.43 251.279 398.492 251.668C400.121 252.305 400.617 251.35 401.007 246.966C401.148 245.304 401.255 244.986 401.644 245.304C402.246 245.799 402.884 245.481 402.884 244.667C402.884 244.243 402.99 244.208 403.309 244.526C403.911 245.127 404.655 245.056 406.354 244.243C407.134 243.854 408.125 243.536 408.479 243.536C408.94 243.536 409.471 242.829 410.321 241.167C410.958 239.823 411.773 238.338 412.127 237.843C412.694 237.03 412.765 236.111 412.765 228.827C412.765 223.771 412.906 220.059 413.19 219.033C413.65 217.088 413.225 213.305 412.056 209.345C411.1 206.092 410.604 202.309 410.675 198.349C410.746 195.167 410.71 195.061 409.648 193.823C409.046 193.151 408.302 192.02 408.019 191.313C407.381 189.757 405.894 187.706 403.273 184.736C401.042 182.191 400.511 181.024 400.121 178.124C399.767 175.614 399.803 175.614 402.884 176.958C404.407 177.594 405.221 178.195 405.575 178.902C405.894 179.468 407.275 181.165 408.692 182.65C411.454 185.585 412.765 187.317 413.402 188.802C413.65 189.333 414.571 190.146 415.598 190.676C416.873 191.384 417.687 192.197 418.608 193.646C419.281 194.743 420.308 196.086 420.91 196.652C421.512 197.253 422.008 197.96 422.008 198.278C422.008 198.561 422.964 199.763 424.133 200.93C425.903 202.698 426.364 202.981 426.895 202.663C427.816 202.062 427.78 201.39 426.789 199.905C426.293 199.162 425.903 198.208 425.974 197.819C426.116 196.899 427.816 196.369 429.162 196.829C430.897 197.43 431.074 195.98 429.409 194.601C428.205 193.576 427.355 193.434 426.647 194.106C426.293 194.495 426.08 194.424 425.656 193.753C425.337 193.328 424.806 192.975 424.451 192.975C424.097 192.975 423.708 192.798 423.601 192.621C423.495 192.409 422.929 192.267 422.397 192.267C421.795 192.267 420.875 191.808 419.954 190.995C418.785 190.005 418.466 189.51 418.466 188.626C418.466 187.989 418.077 186.893 417.581 186.186C416.589 184.736 416.341 182.367 417.191 182.367C417.935 182.367 419.529 180.953 419.529 180.317C419.529 179.963 418.962 179.433 418.183 179.079C416.2 178.124 413.685 176.604 413.012 175.897C412.658 175.543 411.808 174.942 411.065 174.553C410.356 174.164 409.223 173.457 408.55 172.962C407.877 172.467 406.886 171.972 406.39 171.866C405.186 171.654 403.167 169.603 402.069 167.517C401.467 166.35 400.971 165.891 400.121 165.679C399.484 165.502 398.74 164.971 398.422 164.512C398.103 164.017 397.536 163.628 397.182 163.628C396.828 163.628 396.19 163.133 395.73 162.567C394.986 161.542 392.507 160.446 392.047 160.905C391.905 161.011 391.941 161.683 392.047 162.39C392.259 163.38 392.436 163.628 393.109 163.628C393.641 163.628 394.278 164.088 394.88 164.865L395.836 166.103H394.986C394.243 166.103 394.101 166.315 393.888 167.517C393.711 168.613 393.463 169.038 392.755 169.285C391.551 169.745 390.028 169.745 389.532 169.25C389.285 169.002 388.257 168.896 386.876 169.002C385.176 169.108 384.291 169.391 383.122 170.134L381.635 171.159L382.697 173.104C383.972 175.473 383.972 175.579 382.981 175.72C382.52 175.791 382.024 176.18 381.812 176.639C381.387 177.594 380.927 177.665 380.927 176.746C380.927 176.357 380.431 175.579 379.829 174.942C378.943 174.094 378.625 173.952 378.235 174.27C377.668 174.73 377.562 176.215 378.093 176.533C378.306 176.639 378.448 177.028 378.448 177.347C378.412 178.089 376.925 176.392 376.11 174.659C375.791 174.058 375.437 173.528 375.296 173.528C375.154 173.528 374.587 174.023 374.021 174.589C373.454 175.154 372.781 175.649 372.462 175.649C372.179 175.649 371.683 175.897 371.329 176.215C370.975 176.533 370.515 176.675 370.338 176.533C369.842 176.251 370.231 172.573 370.833 171.583C371.648 170.24 372.392 162.496 371.754 161.719C371.223 161.082 371.648 153.197 372.285 151.925C372.675 151.111 372.64 150.934 371.967 150.263C370.975 149.273 370.94 147.01 371.86 145.984C372.533 145.277 372.533 145.171 371.967 143.969C370.904 141.742 371.294 139.903 373.454 137.18C375.756 134.281 377.527 132.513 378.164 132.513C378.518 132.513 379.298 132.266 379.9 131.983C380.891 131.452 380.891 131.382 380.395 130.604C379.829 129.755 380.006 129.331 380.927 129.331C381.741 129.331 383.901 127.033 383.583 126.502C383.406 126.22 383.477 126.113 383.795 126.22C384.079 126.326 384.645 126.078 385.07 125.725L385.849 125.017L385.106 124.027C384.185 122.755 384.539 121.658 386.097 120.987C386.77 120.704 387.301 120.35 387.301 120.173C387.301 119.891 390.276 118.017 390.701 118.017C390.772 118.017 390.843 118.441 390.843 118.936C390.843 120.067 391.586 120.845 392.755 120.845C393.499 120.845 393.711 120.598 394.066 119.325C394.313 118.512 394.809 117.592 395.199 117.274C395.801 116.779 395.872 116.426 395.695 115.082C395.482 113.526 395.518 113.455 396.438 113.349C397.147 113.279 397.43 113.031 397.501 112.359C397.572 111.864 397.819 111.299 398.067 111.122C398.315 110.91 398.599 110.344 398.705 109.778C398.882 108.93 398.776 108.824 397.961 108.824C397.465 108.824 396.651 109.142 396.155 109.531C395.199 110.238 394.384 109.955 394.384 108.894C394.384 108.576 394.066 108.01 393.676 107.586C393.18 107.056 392.932 106.136 392.755 104.227C392.613 102.777 392.295 101.257 392.047 100.868C391.764 100.479 391.551 99.6307 391.551 98.9235C391.551 98.0749 391.339 97.5446 390.843 97.2263C389.993 96.7313 389.851 94.5392 390.595 93.6552C390.878 93.337 391.303 92.347 391.516 91.4631C391.905 90.0841 392.082 89.8366 392.649 89.978C393.18 90.1195 393.463 89.9073 393.782 89.0587C394.172 87.998 394.738 87.5737 394.738 88.3162C394.738 88.7759 397.536 91.852 397.961 91.852C398.138 91.852 398.28 91.4277 398.315 90.862C398.315 89.978 398.386 90.0134 398.953 91.3216L399.59 92.7359L400.051 91.2863C400.299 90.4731 400.405 89.0941 400.263 88.1041C399.732 83.6137 399.59 82.8005 399.307 82.5176C398.811 81.9872 398.917 81.5983 399.519 81.5983C399.874 81.5983 400.051 81.2447 400.051 80.5376C400.051 79.689 399.909 79.4769 399.271 79.4769C398.811 79.4769 397.784 78.8404 397.005 78.0625C395.695 76.8604 395.553 76.5775 395.765 75.5522C396.013 74.2439 396.863 73.7136 396.863 74.8804C396.863 75.7997 400.015 79.0172 401.219 79.3001C401.715 79.4415 402.53 80.184 403.061 80.9972C403.84 82.1994 403.982 82.6944 403.769 83.7198C403.628 84.3915 403.45 85.4169 403.344 85.9473C403.238 86.5484 403.344 87.1494 403.698 87.5384C404.265 88.1748 406.779 95.1049 406.779 96.0595C406.779 96.3778 407.204 97.2617 407.736 98.0042C408.231 98.7821 409.011 100.833 409.471 102.601C410.144 105.394 410.179 105.889 409.754 106.384C409.436 106.738 409.329 107.339 409.471 108.01C409.577 108.647 409.506 109.177 409.294 109.319C409.081 109.46 408.904 109.955 408.904 110.45C408.904 111.051 409.117 111.299 409.577 111.299C410.321 111.299 411.383 112.713 411.383 113.703C411.383 114.092 411.631 114.587 411.915 114.834C412.198 115.082 412.446 115.648 412.446 116.107C412.446 116.638 413.26 117.84 414.748 119.466C416.023 120.845 417.05 122.083 417.05 122.26C417.05 122.861 420.697 124.841 423.672 125.795C425.372 126.361 427.037 127.103 427.32 127.457C428.135 128.412 429.551 129.26 432.738 130.604C434.332 131.311 435.961 132.16 436.386 132.549C436.776 132.902 437.378 133.22 437.732 133.22C438.051 133.22 438.865 133.609 439.503 134.104C440.176 134.599 441.132 134.988 441.769 134.988C442.513 134.988 443.08 135.271 443.575 135.908L444.319 136.862V134.953C444.319 133.892 444.071 132.089 443.788 130.922C443.505 129.755 443.292 128.376 443.257 127.881C443.257 127.174 442.619 126.326 440.848 124.664C438.086 122.083 437.874 121.658 438.157 119.784C438.334 118.724 438.547 118.37 439.149 118.299C440.282 118.123 440.176 116.567 439.007 116.249C436.315 115.506 434.722 113.809 434.226 111.193C434.013 109.92 434.12 109.708 435.465 108.47C436.74 107.303 436.847 107.056 436.563 106.243C436.067 104.934 434.615 104.086 433.376 104.333C432.703 104.475 432.207 104.369 431.924 104.086C431.711 103.803 431.18 103.485 430.72 103.379C429.87 103.166 428.382 101.08 428.382 100.126C428.382 99.8428 428.63 99.5246 428.949 99.3832C429.232 99.2771 429.657 98.7821 429.834 98.2871C430.118 97.5799 430.012 97.2617 429.409 96.5546C428.63 95.7413 426.86 95.4231 426.47 96.0595C425.903 96.9788 422.716 94.9988 422.716 93.726C422.716 93.1602 420.308 90.5438 420.095 90.862C419.245 92.0995 418.537 93.726 418.679 94.1502C418.998 94.9635 418.289 94.7867 416.589 93.6199C414.854 92.4531 414.571 91.9934 414.571 90.367C414.571 89.483 414.11 88.7759 412.446 87.0434C410.498 85.028 410.356 84.7451 410.569 83.649C410.675 82.9419 411.242 82.0933 411.95 81.4922C413.331 80.3254 413.437 79.9718 412.446 79.6536C412.056 79.5122 411.737 79.1233 411.737 78.7343C411.737 78.3454 411.56 77.6736 411.348 77.2493C410.958 76.5068 410.958 76.5068 411.596 77.0372C411.95 77.32 412.694 77.7443 413.26 77.9918C414.146 78.3808 414.217 78.3454 414.217 77.4615C414.217 76.9665 413.898 76.0118 413.473 75.3754C412.871 74.3854 412.8 73.9964 413.119 72.9003C413.367 72.0164 413.367 71.4153 413.119 71.1325C412.871 70.8496 413.048 70.3192 413.65 69.3999C414.146 68.6928 414.642 67.8089 414.748 67.4199C415.031 66.6067 416.377 66.2178 417.333 66.7128C417.9 66.9956 418.183 66.9249 418.82 66.1824L419.67 65.3338L418.573 64.167C417.439 63.0002 416.696 61.0202 416.696 59.1816C416.696 58.6512 416.306 57.7319 415.81 57.1662C415.35 56.6005 414.854 55.5398 414.748 54.7973C414.606 54.0901 414.217 52.4637 413.827 51.2262C413.473 49.9886 413.154 48.15 413.154 47.16C413.119 46.17 412.871 44.7204 412.587 43.9425C412.269 43.1646 411.985 42.1746 411.95 41.715C411.879 41.2907 411.56 40.6896 411.171 40.4067C410.533 39.9117 410.533 39.9117 411.313 39.8764C411.879 39.8764 412.233 39.5582 412.517 38.8156C412.729 38.1438 413.19 37.6842 413.721 37.5428C414.394 37.366 414.571 37.0831 414.571 36.1638C414.571 35.5274 414.323 34.7849 414.004 34.5374C413.685 34.2899 413.296 33.6888 413.119 33.2645C412.871 32.5927 412.694 32.4866 412.162 32.7695C411.808 32.9816 411.171 33.017 410.746 32.9109C410.285 32.8049 409.577 32.9816 409.046 33.3352C408.55 33.6534 408.054 33.8302 407.948 33.7242C407.806 33.6181 407.488 33.7242 407.204 33.9716C406.779 34.2899 406.638 34.2899 406.532 33.9363C406.425 33.6534 405.611 33.512 404.23 33.512C402.388 33.512 401.998 33.6181 401.396 34.396C401.007 34.8909 400.405 35.2799 399.98 35.2799C399.307 35.2799 399.307 35.2799 400.051 34.0424C400.724 32.9463 400.759 32.6281 400.405 30.9663C400.121 29.4812 399.661 28.7034 398.209 27.183C396.474 25.4151 396.332 25.3091 395.022 25.5212C393.782 25.7333 393.641 25.6626 393.322 24.814C393.109 24.2837 393.003 23.824 393.038 23.7887C393.393 23.5058 396.155 23.3997 396.615 23.6472C397.005 23.8947 397.359 23.718 397.926 23.0108C398.563 22.1976 398.669 21.7379 398.492 20.3943C398.209 18.3436 398.599 17.99 400.901 18.0607C402.246 18.1315 402.707 17.99 403.025 17.4597C404.3 15.3382 404.973 14.6311 406.071 14.2775C407.063 13.9593 407.346 13.6411 407.736 12.3682C407.984 11.4489 408.054 10.5296 407.877 10.0699C407.7 9.64565 407.629 8.90314 407.736 8.40813L407.877 7.5242L406.921 8.47885L405.965 9.4335L404.442 7.7717C403.344 6.56955 402.919 6.28668 402.884 6.74634C402.884 7.24133 402.742 7.31204 402.282 7.06454C401.892 6.81705 401.68 6.25131 401.68 5.36737C401.644 4.20059 401.538 4.0238 400.971 4.09451C400.405 4.20059 400.334 4.12988 400.688 3.74094C401.007 3.31665 400.936 3.06915 400.228 2.39734C399.732 1.93771 399.342 1.19519 399.342 0.735535C399.342 -0.183746 399.236 -0.183746 397.855 0.417328ZM398.988 35.2799C398.988 35.4567 398.669 35.6335 398.244 35.6335C397.855 35.6335 397.642 35.4567 397.749 35.2799C397.855 35.0677 398.209 34.9263 398.492 34.9263C398.776 34.9263 398.988 35.0677 398.988 35.2799ZM398.28 37.0478C398.28 37.2245 398.103 37.4013 397.89 37.4013C397.713 37.4013 397.642 37.2245 397.749 37.0478C397.855 36.8356 398.032 36.6942 398.138 36.6942C398.209 36.6942 398.28 36.8356 398.28 37.0478ZM244.792 83.649C244.013 83.8258 243.73 83.543 244.048 83.0126C244.226 82.7297 244.438 82.7651 244.828 83.0833C245.359 83.5076 245.323 83.543 244.792 83.649ZM253.292 100.904C253.115 101.575 253.221 101.752 253.788 101.752C254.885 101.752 254.637 102.353 253.115 103.308C252.336 103.803 251.627 104.51 251.486 104.899C251.379 105.253 250.848 105.641 250.317 105.712C249.786 105.818 249.042 106.03 248.652 106.207C248.015 106.455 248.015 106.419 248.759 105.5C249.184 104.934 249.538 104.298 249.538 104.015C249.538 103.768 250.034 103.485 250.6 103.343C251.344 103.166 251.663 102.919 251.663 102.389C251.663 101.469 252.76 99.6307 253.185 99.8782C253.363 99.9842 253.398 100.444 253.292 100.904ZM188.837 118.406C189.12 118.688 189.333 119.113 189.333 119.325C189.333 119.537 189.545 119.784 189.793 119.891C190.076 119.997 190.041 120.138 189.616 120.315C189.297 120.456 188.66 120.279 188.128 119.961C187.385 119.466 187.208 119.077 187.208 117.875C187.208 116.001 187.633 115.506 188.058 116.85C188.235 117.38 188.589 118.087 188.837 118.406ZM395.411 169.709C395.624 169.957 396.261 170.735 396.863 171.442C398.103 172.927 398.244 173.882 397.217 173.882C396.792 173.882 396.297 173.457 395.978 172.821C395.624 172.149 395.163 171.76 394.703 171.76C394.066 171.76 393.995 171.689 394.42 171.194C394.774 170.77 394.774 170.487 394.455 169.957C394.101 169.426 394.136 169.285 394.561 169.285C394.845 169.285 395.234 169.497 395.411 169.709Z" fill="url(#paint0_linear_134_434)"/>
<path d="M359.642 12.4743C358.509 13.2168 358.332 13.535 358.12 15.1968C357.907 16.8587 358.013 17.3183 358.792 18.7326C359.819 20.6066 360.846 21.0308 361.838 20.0408C362.192 19.6873 362.546 19.263 362.546 19.0862C363.148 15.6919 363.007 12.6511 362.228 12.0854C361.413 11.4489 361.13 11.4843 359.642 12.4743Z" fill="url(#paint1_linear_134_434)"/>
<path d="M166.313 41.3613C165.994 41.9977 166.03 42.422 166.455 43.2352C166.915 44.0838 166.915 44.3313 166.525 44.5435C165.675 45.0385 166.313 46.5942 167.588 47.2306C168.721 47.761 169.252 48.5742 169.288 49.7764C169.323 50.236 171.59 51.2968 171.944 50.9785C172.015 50.9078 171.696 50.5189 171.236 50.13C170.527 49.5642 170.456 49.3874 170.917 49.1046C171.342 48.8217 171.342 48.6449 170.775 48.0439C170.386 47.6196 169.89 47.3013 169.606 47.3013C169.323 47.3013 169.217 47.1246 169.323 46.9478C169.429 46.7356 170.315 46.5942 171.236 46.5942C173.183 46.5942 174.529 45.6042 173.785 44.6849C173.467 44.296 173.644 44.0131 174.706 43.1999C176.017 42.2099 176.017 42.2099 175.167 41.9624C173.75 41.5734 173.396 41.6088 173.396 42.1745C173.396 42.4927 173.077 42.7049 172.546 42.7049C172.05 42.7049 171.554 42.8817 171.448 43.0584C171.306 43.2706 170.917 43.0584 170.492 42.5281C170.067 41.9977 169.429 41.6441 168.898 41.6441C168.367 41.6441 167.694 41.3966 167.34 41.0784C166.738 40.5481 166.667 40.5481 166.313 41.3613ZM168.792 44.1192C168.792 44.296 168.544 44.4727 168.261 44.4727C167.977 44.4727 167.729 44.296 167.729 44.1192C167.729 43.907 167.977 43.7656 168.261 43.7656C168.544 43.7656 168.792 43.907 168.792 44.1192Z" fill="url(#paint2_linear_134_434)"/>
<path d="M181.612 44.1193C181.718 44.7911 181.612 45.18 181.329 45.18C181.081 45.18 180.975 44.8971 181.081 44.4729C181.223 43.9071 181.081 43.7657 180.337 43.7657C179.381 43.7657 179.346 43.9779 180.266 45.1447C180.479 45.3922 180.656 45.8872 180.656 46.2054C180.656 46.5236 181.01 46.8065 181.435 46.8772C182.002 46.9479 182.25 46.7711 182.356 46.17C182.498 45.3568 182.498 45.3568 182.568 46.1347C182.604 46.8418 182.675 46.8772 183.489 46.5236C184.127 46.2407 184.339 45.9225 184.162 45.5689C184.056 45.2507 183.772 44.5789 183.595 44.0132C183.348 43.3061 182.993 43.0586 182.356 43.0586C181.577 43.0586 181.471 43.1646 181.612 44.1193Z" fill="url(#paint3_linear_134_434)"/>
<path d="M187.349 44.8971C187.456 45.1446 187.668 45.6396 187.774 45.9578C187.916 46.3114 188.306 46.5942 188.66 46.5942C189.156 46.5942 189.333 46.3467 189.333 45.5335C189.333 44.5789 189.226 44.4728 188.235 44.4728C187.491 44.4728 187.208 44.6142 187.349 44.8971Z" fill="url(#paint4_linear_134_434)"/>
<path d="M178.354 45.3568C178.354 45.6751 178.035 45.8872 177.504 45.8872C176.371 45.8872 176.017 46.4883 176.69 47.2308C176.937 47.549 177.292 48.1147 177.398 48.433C177.539 48.8219 178 49.0694 178.531 49.0694C179.416 49.0694 179.416 49.0694 178.885 48.0087C178.567 47.4076 178.177 47.0186 178 47.1247C177.787 47.2308 177.752 47.1247 177.858 46.8419C178.142 46.0286 179.416 46.559 179.416 47.4783C179.416 48.2915 180.55 49.5998 180.939 49.1755C181.4 48.7512 181.187 47.7612 180.479 47.1247C180.089 46.7711 179.771 46.0994 179.771 45.6397C179.771 45.074 179.558 44.8265 179.062 44.8265C178.673 44.8265 178.354 45.074 178.354 45.3568Z" fill="url(#paint5_linear_134_434)"/>
<path d="M172.758 47.5137C172.9 47.6197 172.865 48.044 172.652 48.433C172.192 49.3169 172.794 50.1301 173.963 50.1301C174.565 50.1301 174.742 49.9887 174.6 49.5998C174.423 49.2108 174.635 49.0694 175.344 49.0694C176.123 49.0694 176.264 48.928 176.158 48.2562C176.052 47.5844 175.804 47.4783 174.281 47.3722C173.325 47.3015 172.652 47.3722 172.758 47.5137Z" fill="url(#paint6_linear_134_434)"/>
<path d="M183.348 48.1501C183.135 48.3976 183.064 48.928 183.206 49.2815C183.418 49.918 183.418 49.918 182.71 49.3169C182.002 48.6805 181.966 48.7158 181.046 49.8473C180.373 50.6958 180.125 50.8373 180.125 50.3776C180.125 49.9887 179.842 49.7765 179.239 49.7765C178.744 49.7765 178.354 49.918 178.354 50.0948C178.354 50.2715 177.858 50.3776 177.256 50.3423C176.123 50.3069 176.017 50.4483 175.804 52.0394C175.663 52.9587 178 53.5244 179.169 52.888C180.089 52.393 181.506 52.2869 181.754 52.6759C182.108 53.2416 183.277 52.9587 184.339 52.0394C185.118 51.3676 185.437 51.2616 185.437 51.6505C185.437 52.2162 186.145 52.6051 187.137 52.6051C187.456 52.6051 188.164 52.1808 188.695 51.6505C190.289 50.1301 189.864 48.0794 188.164 49.1755C187.031 49.8826 185.685 50.1655 185.083 49.7765C184.729 49.529 184.693 49.423 185.012 49.423C185.225 49.423 185.437 49.034 185.437 48.539C185.437 47.8319 185.26 47.6551 184.587 47.6551C184.127 47.6551 183.56 47.8672 183.348 48.1501Z" fill="url(#paint7_linear_134_434)"/>
<path d="M299.862 48.3268C299.366 49.2461 299.898 50.2008 300.747 49.8826C301.385 49.6351 301.385 49.034 300.747 48.1854C300.287 47.549 300.252 47.549 299.862 48.3268Z" fill="url(#paint8_linear_134_434)"/>
<path d="M222.41 53.5598C222.304 53.9487 221.666 54.5145 220.993 54.9034C220.002 55.4338 219.789 55.752 219.789 56.7066C219.789 57.3431 219.612 58.2977 219.364 58.7927C219.046 59.4999 219.081 59.8888 219.435 60.6667C219.719 61.1971 220.002 61.7628 220.108 61.9396C220.179 62.1163 219.754 62.1517 219.081 62.0456C218.019 61.8335 217.948 61.8688 218.16 62.6114C218.267 63.0356 218.373 63.6721 218.373 63.9903C218.373 64.8035 220.462 65.8289 221.064 65.2985C221.383 65.051 221.56 65.0157 221.56 65.2632C221.56 65.44 221.312 65.7935 221.029 66.041C220.427 66.536 220.923 67.4553 221.773 67.4553C222.056 67.4553 222.445 67.8443 222.623 68.3393C222.8 68.7989 223.437 69.4354 224.039 69.7536C224.606 70.0364 225.102 70.4607 225.102 70.6729C225.102 70.9557 225.243 70.9557 225.597 70.6729C226.022 70.3193 226.306 70.3547 227.014 70.8143C228.112 71.5568 229.387 71.3093 230.414 70.2132C231.122 69.4707 231.122 69.4354 230.414 68.2686C230.024 67.5968 229.883 67.0311 230.095 66.925C230.272 66.7835 230.378 65.8289 230.308 64.7328C230.201 63.0003 230.06 62.7174 229.245 62.2578C228.714 61.9749 228.112 61.8688 227.935 61.9749C227.722 62.081 227.581 61.8688 227.581 61.4799C227.581 61.0556 227.368 60.7374 227.085 60.7374C226.801 60.7374 226.483 60.4899 226.377 60.1717C226.022 59.2877 226.129 57.5552 226.518 57.5552C227.191 57.5552 226.872 56.742 225.668 55.4338C225.031 54.7266 224.429 53.9487 224.358 53.772C224.287 53.5598 223.862 53.277 223.402 53.1355C222.764 52.9587 222.516 53.0295 222.41 53.5598ZM222.41 63.3892C222.268 63.6721 222.127 63.9196 222.056 63.9196C221.985 63.9196 221.914 63.6721 221.914 63.3892C221.914 63.1064 222.056 62.8589 222.268 62.8589C222.445 62.8589 222.516 63.1064 222.41 63.3892Z" fill="url(#paint9_linear_134_434)"/>
<path d="M179.098 53.7718C178.354 54.5143 178.637 55.4336 179.593 55.4336C180.089 55.4336 180.479 55.2922 180.479 55.1154C180.479 54.9386 180.585 54.5497 180.691 54.2668C180.904 53.6304 179.629 53.2414 179.098 53.7718Z" fill="url(#paint10_linear_134_434)"/>
<path d="M216.956 54.1962C216.602 54.6558 216.637 54.868 217.133 55.4337C217.735 56.1055 217.806 56.1055 218.444 55.5751C219.364 54.6912 219.258 53.6658 218.231 53.6658C217.771 53.6658 217.204 53.9133 216.956 54.1962Z" fill="url(#paint11_linear_134_434)"/>
<path d="M308.928 54.7265C308.007 55.5043 307.618 55.6458 307.335 55.3629C307.016 55.0447 306.626 55.2215 305.705 56.1054C304.643 57.1308 304.395 57.2015 303.722 56.8479C303.014 56.459 302.979 56.4944 303.191 57.2722C303.899 59.5705 305.776 60.8787 306.91 59.8533C307.228 59.5705 307.901 59.323 308.397 59.323C309.991 59.323 311.62 57.9087 311.974 56.2115C312.505 53.5597 311.053 52.8525 308.928 54.7265Z" fill="url(#paint12_linear_134_434)"/>
<path d="M204.136 55.1154C203.322 55.5751 203.322 56.0347 204.172 56.4944C204.703 56.7419 205.057 56.6712 205.694 56.1762C206.119 55.7872 206.438 55.4337 206.332 55.3276C205.871 54.9033 204.667 54.7972 204.136 55.1154Z" fill="url(#paint13_linear_134_434)"/>
<path d="M300.181 58.8634C299.508 58.9695 298.658 59.2877 298.339 59.5706C297.843 59.9949 297.596 60.0302 297.206 59.712C296.816 59.3938 296.427 59.3938 295.4 59.8181C294.09 60.3838 294.054 60.4899 294.762 62.3285C294.904 62.7528 292.071 62.8235 291.398 62.3992C291.115 62.187 290.902 62.4345 290.761 63.2124C290.619 63.8135 290.371 64.3792 290.229 64.4853C289.804 64.7328 289.84 66.2885 290.265 66.5714C290.477 66.6774 290.619 67.0664 290.619 67.42C290.619 67.7735 290.938 68.1625 291.292 68.2685C291.681 68.3392 292.035 68.7989 292.106 69.2232C292.213 70.1071 292.602 70.3546 294.692 70.9911C296.887 71.6275 298.481 71.3446 298.764 70.2839C299.189 68.7282 300.854 66.3946 301.385 66.6067C302.093 66.8896 303.439 64.9803 303.262 63.9903C303.191 63.566 303.262 63.1063 303.404 63.0003C303.899 62.7174 303.758 61.5506 303.191 60.9495C302.908 60.6667 302.66 60.0302 302.66 59.5352C302.66 58.5806 302.695 58.5806 300.181 58.8634Z" fill="url(#paint14_linear_134_434)"/>
<path d="M199.072 63.7075C198.399 64.2025 198.399 64.2378 199.249 64.945C199.745 65.3339 200.24 65.6521 200.347 65.6875C200.842 65.6875 200.949 64.1671 200.488 63.7075C199.886 63.1064 199.886 63.1064 199.072 63.7075Z" fill="url(#paint15_linear_134_434)"/>
<path d="M232.432 65.9701C232.114 66.3237 231.759 67.5259 231.618 68.622C231.476 69.7534 231.228 70.7434 231.086 70.8495C230.909 70.9556 230.768 71.6274 230.768 72.3345C230.768 73.0417 230.626 74.2438 230.449 74.951C230.201 76.0824 230.237 76.2946 230.768 76.4713C231.157 76.5774 231.972 76.2946 232.751 75.7642C233.495 75.2692 234.486 74.7742 234.982 74.6327C236.47 74.3145 238.169 73.1124 238.736 72.087C239.196 71.2031 239.161 70.9556 238.488 69.6473C238.099 68.8341 237.638 68.2684 237.461 68.3745C237.249 68.4805 236.788 68.1623 236.363 67.6319C235.974 67.1369 235.442 66.7834 235.195 66.8894C234.911 66.9955 234.628 66.7127 234.522 66.1823C234.238 65.1569 233.247 65.0508 232.432 65.9701Z" fill="url(#paint16_linear_134_434)"/>
<path d="M288.671 68.5161C288.565 68.6929 288.636 69.1172 288.813 69.4708C288.99 69.8244 289.238 70.3901 289.344 70.7083C289.45 71.0619 289.875 71.3447 290.265 71.3447C291.079 71.3447 291.256 70.0365 290.619 68.8343C290.229 68.1272 289.025 67.915 288.671 68.5161Z" fill="url(#paint17_linear_134_434)"/>
<path d="M305.635 71.0265C304.466 72.2641 304.147 72.2994 304.006 71.274C303.899 70.3548 302.872 70.0365 302.129 70.6376C301.385 71.2387 301.456 72.158 302.341 73.2541C303.049 74.138 303.12 74.1734 303.545 73.6076C303.935 73.0419 304.006 73.0419 304.466 73.8552C304.714 74.3148 304.891 74.9512 304.856 75.2695C304.785 75.5877 304.997 76.012 305.281 76.2595C305.706 76.613 305.847 76.5423 306.024 75.9766C306.166 75.5523 306.874 75.0573 307.901 74.7037C308.822 74.4209 309.955 73.8552 310.416 73.5016C311.195 72.9005 311.23 72.8298 310.664 71.7691C310.239 70.9558 309.814 70.6376 309.212 70.6376C308.751 70.6376 307.972 70.4962 307.512 70.3194C306.768 70.0365 306.485 70.1426 305.635 71.0265Z" fill="url(#paint18_linear_134_434)"/>
<path d="M239.409 72.6176C239.515 73.254 240.896 74.138 241.817 74.1733C242.632 74.1733 242.915 73.6076 242.455 72.759C241.959 71.8397 239.267 71.6983 239.409 72.6176Z" fill="url(#paint19_linear_134_434)"/>
<path d="M294.692 77.0371C294.55 77.2492 294.514 77.426 294.55 77.4967C296.285 78.6281 296.71 78.8049 297.171 78.416C297.985 77.7442 297.206 76.6481 295.931 76.6481C295.364 76.6481 294.798 76.8249 294.692 77.0371Z" fill="url(#paint20_linear_134_434)"/>
<path d="M179.771 78.699C178.885 79.1587 177.894 79.7951 177.575 80.078C176.796 80.7498 173.219 80.4669 172.333 79.6537C171.554 78.9819 170.775 78.9819 170.173 79.6891C169.819 80.1133 169.288 80.2194 168.19 80.078C166.49 79.9012 164.578 80.4316 163.515 81.3862C163.019 81.8459 162.524 81.9519 161.886 81.8105C161.249 81.6337 161.001 81.7398 161.001 82.1287C161.001 82.7652 160.576 82.8005 160.044 82.2702C159.442 81.6691 158.876 82.2348 158.947 83.2955C159.053 84.6038 158.663 85.1341 157.565 85.1341C157.034 85.1341 156.751 85.2402 156.857 85.3463C157.247 85.7352 154.343 87.5738 152.643 88.0334C150.801 88.5285 150.305 89.2356 151.262 89.9428C151.616 90.2256 151.722 90.4378 151.51 90.4378C151.262 90.4378 151.085 90.6499 151.085 90.9328C151.085 91.2863 150.695 91.3571 149.491 91.2156C147.968 91.0742 147.897 91.1096 147.897 91.9581C147.897 92.6299 147.756 92.8421 147.401 92.7006C147.118 92.5946 146.481 92.7714 145.949 93.1249C145.099 93.6907 145.064 93.7967 145.56 94.1503C146.056 94.5392 146.056 94.6453 145.454 95.1757C145.099 95.4939 144.002 95.8475 143.01 95.9889C141.098 96.201 140.46 96.7668 140 98.5346C139.823 99.2064 140.035 99.6661 141.062 100.585C142.62 102.07 143.152 103.909 142.195 104.722C141.806 105.04 141.523 105.571 141.523 105.924C141.523 106.632 143.966 109.177 144.639 109.177C144.887 109.177 145.064 109.319 145.064 109.495C145.064 109.672 145.418 109.884 145.879 109.955C146.374 110.026 146.693 110.344 146.764 110.839C146.87 111.617 146.906 111.617 148.11 111.051C149.42 110.415 149.562 109.849 148.818 108.47C148.464 107.904 148.428 107.339 148.641 106.773C148.818 106.278 148.818 105.712 148.641 105.359C148.216 104.545 148.57 101.505 149.172 101.01C149.455 100.798 149.668 100.409 149.668 100.126C149.668 99.8782 149.987 99.5954 150.341 99.4539C150.766 99.3479 151.085 98.8529 151.155 98.2871C151.226 97.5093 151.474 97.2971 152.324 97.2264C153.068 97.1557 153.599 96.7668 154.201 95.9182C154.626 95.2464 155.193 94.6807 155.476 94.6807C155.724 94.6807 156.149 94.4332 156.397 94.1503C156.716 93.7614 156.963 93.6907 157.247 93.9735C157.813 94.5392 158.168 94.3978 158.168 93.6199C158.168 93.231 158.415 92.9128 158.699 92.9128C158.982 92.9128 159.23 92.7714 159.23 92.5592C159.23 92.3824 159.867 91.7813 160.647 91.2863C161.426 90.756 162.063 90.1195 162.063 89.8367C162.063 89.5185 162.276 89.377 162.594 89.5185C162.878 89.6245 163.126 89.5538 163.126 89.377C163.126 89.1649 163.692 89.0235 164.401 89.0235C166.03 89.0235 167.057 88.4577 166.773 87.7506C166.49 87.0434 167.234 86.5484 168.65 86.5484C169.252 86.5484 169.961 86.3009 170.209 86.0181C170.527 85.6291 171.377 85.4877 173.254 85.4877C174.671 85.4877 175.91 85.3463 176.052 85.1341C176.194 84.922 176.548 84.9573 177.079 85.1695C177.716 85.4523 178.141 85.417 178.991 84.9927C179.593 84.6745 180.479 84.427 180.904 84.427C181.4 84.427 182.285 83.8966 183.064 83.0834C184.056 82.058 184.374 81.4569 184.374 80.5376C184.339 78.0273 182.462 77.2847 179.771 78.699Z" fill="url(#paint21_linear_134_434)"/>
<path d="M243.021 78.3101C242.738 79.0526 243.305 79.6537 244.013 79.3709C244.792 79.088 244.721 78.5223 243.907 78.098C243.375 77.8151 243.198 77.8505 243.021 78.3101Z" fill="url(#paint22_linear_134_434)"/>
<path d="M215.398 82.1641C215.256 82.4823 215.363 82.9773 215.61 83.2602C216 83.7198 216.142 83.6845 216.673 83.0127C217.027 82.5884 217.31 82.0934 217.31 81.9166C217.31 81.3509 215.61 81.5984 215.398 82.1641Z" fill="url(#paint23_linear_134_434)"/>
<path d="M226.341 82.3054C225.987 82.6943 225.456 83.0126 225.137 83.0126C224.712 83.0126 224.747 83.1893 225.349 83.7904C226.128 84.5329 226.164 84.5329 226.872 83.8965C227.58 83.2601 227.864 81.5983 227.297 81.5983C227.12 81.5983 226.695 81.9165 226.341 82.3054Z" fill="url(#paint24_linear_134_434)"/>
<path d="M415.173 83.7904C414.393 84.2147 414.358 86.9725 415.102 87.609C415.385 87.8565 415.633 88.3515 415.633 88.7051C415.633 89.094 416.093 89.589 416.731 89.9426L417.864 90.5083L417.616 89.1647C417.475 88.3868 417.333 86.9372 417.297 85.8765C417.227 84.3207 417.085 83.9318 416.483 83.7196C416.093 83.5429 415.491 83.5782 415.173 83.7904Z" fill="url(#paint25_linear_134_434)"/>
<path d="M444.815 87.2909C443.752 87.6798 443.434 88.2809 444.036 88.882C444.461 89.3063 444.673 89.2356 445.523 88.3516C446.55 87.2555 446.231 86.7605 444.815 87.2909Z" fill="url(#paint26_linear_134_434)"/>
<path d="M204.242 90.2256C203.64 90.9328 204.667 91.6399 205.871 91.3217L206.863 91.0742L205.977 90.4024C204.915 89.6246 204.773 89.5892 204.242 90.2256Z" fill="url(#paint27_linear_134_434)"/>
<path d="M438.653 90.7912C438.405 90.9326 438.334 91.3569 438.476 91.8166C438.653 92.453 438.971 92.5591 440.565 92.5591C441.982 92.5591 442.584 92.3823 443.079 91.8519C443.434 91.463 443.611 91.0387 443.504 90.8973C443.15 90.5791 439.184 90.473 438.653 90.7912Z" fill="url(#paint28_linear_134_434)"/>
<path d="M203.003 94.0796C202.259 94.6453 202.507 96.095 203.357 96.095C204.065 96.095 204.384 95.1757 203.994 94.2917C203.711 93.6907 203.605 93.6553 203.003 94.0796Z" fill="url(#paint29_linear_134_434)"/>
<path d="M256.337 95.1403C255.487 96.0242 255.31 97.1556 255.983 97.1556C256.196 97.1556 256.656 97.4031 256.975 97.686C257.542 98.181 257.683 98.1456 258.71 97.3324C259.489 96.6606 259.808 96.0596 259.808 95.3524C259.808 94.3977 259.702 94.327 258.462 94.327C257.506 94.327 256.869 94.5745 256.337 95.1403Z" fill="url(#paint30_linear_134_434)"/>
<path d="M208.386 99.949C207.855 100.479 207.961 101.186 208.669 102.07C208.917 102.353 209.873 101.293 209.873 100.691C209.873 99.6661 209.094 99.2772 208.386 99.949Z" fill="url(#paint31_linear_134_434)"/>
<path d="M180.125 102.035C180.125 102.212 179.7 102.53 179.204 102.778C178.673 103.025 178.354 103.379 178.46 103.662C178.566 103.909 178.495 104.298 178.318 104.475C177.681 105.111 179.027 106.101 180.231 105.854C180.797 105.748 181.506 105.642 181.754 105.642C182.497 105.642 182.356 104.722 181.364 103.167C180.479 101.788 180.125 101.469 180.125 102.035Z" fill="url(#paint32_linear_134_434)"/>
<path d="M203.038 102.707C202.578 103.131 202.79 103.873 203.392 103.873C203.711 103.873 204.278 104.121 204.632 104.475C205.234 105.005 205.269 105.005 205.269 103.98C205.269 103.308 205.057 102.813 204.703 102.671C203.994 102.388 203.321 102.388 203.038 102.707Z" fill="url(#paint33_linear_134_434)"/>
<path d="M188.978 104.757C188.412 105.429 189.191 106.561 189.828 106.03C190.076 105.818 190.607 105.747 191.032 105.889C191.918 106.101 191.989 105.924 191.457 104.899C190.997 104.086 189.616 104.015 188.978 104.757Z" fill="url(#paint34_linear_134_434)"/>
<path d="M125.09 108.647C123.355 110.874 124.913 112.642 128.136 112.147C130.013 111.829 130.402 110.839 129.411 108.859C128.773 107.551 128.561 107.409 127.357 107.409C126.259 107.409 125.869 107.621 125.09 108.647Z" fill="url(#paint35_linear_134_434)"/>
<path d="M84.2922 108.647C84.1505 108.93 84.2568 109.425 84.5047 109.708C84.8943 110.203 85.0359 110.203 85.638 109.637C86.2754 109.071 86.2754 109.001 85.7088 108.576C84.8943 107.975 84.5401 108.011 84.2922 108.647Z" fill="url(#paint36_linear_134_434)"/>
<path d="M194.786 110.061C194.574 110.91 195.105 112.006 195.743 112.006C195.92 112.006 196.309 111.617 196.628 111.122C197.088 110.415 197.124 110.132 196.77 109.708C196.061 108.859 195.034 109.071 194.786 110.061Z" fill="url(#paint37_linear_134_434)"/>
<path d="M2.83837 111.086C2.4488 111.405 1.77592 111.511 1.17387 111.405C0.253086 111.228 0.217671 111.263 0.536404 112.041C1.81134 115.329 3.01544 117.415 4.71535 119.36L6.66316 121.552L8.11517 120.774C10.0984 119.678 10.5588 118.405 9.49635 116.956C9.00054 116.319 8.71722 115.4 8.71722 114.551C8.71722 113.455 8.54015 113.031 7.86727 112.607C7.12355 112.112 6.9819 112.112 6.48609 112.607C5.95487 113.137 5.88404 113.137 5.67155 112.501C5.3174 111.581 4.43203 110.591 3.93622 110.591C3.72374 110.591 3.22793 110.804 2.83837 111.086Z" fill="url(#paint38_linear_134_434)"/>
<path d="M443.115 137.994C442.584 138.807 442.584 138.948 443.115 139.762C443.505 140.363 443.646 141.07 443.505 141.848C443.257 143.368 444.284 144.57 445.204 143.828C445.488 143.58 445.736 143.05 445.736 142.625C445.736 142.201 445.913 141.671 446.125 141.459C446.409 141.176 446.302 140.681 445.771 139.726C445.382 138.948 444.992 138.064 444.886 137.711C444.602 136.827 443.788 136.968 443.115 137.994Z" fill="url(#paint39_linear_134_434)"/>
<path d="M446.09 147.151C446.09 147.611 446.338 148.177 446.656 148.424C447.081 148.813 447.294 148.778 447.79 148.283C448.356 147.717 448.356 147.646 447.506 147.01C446.338 146.091 446.09 146.126 446.09 147.151Z" fill="url(#paint40_linear_134_434)"/>
<path d="M451.402 166.633C451.402 168.118 451.473 168.224 452.323 168.224C453.031 168.224 453.208 168.083 453.031 167.659C452.925 167.34 452.819 166.633 452.819 166.068C452.819 165.29 452.642 165.042 452.11 165.042C451.508 165.042 451.402 165.29 451.402 166.633Z" fill="url(#paint41_linear_134_434)"/>
<path d="M376.677 168.543C376.677 168.755 376.464 168.932 376.181 168.932C375.437 168.932 374.977 169.674 374.835 171.053C374.729 172.114 374.835 172.29 375.508 172.29C375.933 172.29 376.393 172.432 376.535 172.573C376.96 172.998 378.093 171.689 378.093 170.805C378.093 170.31 377.775 169.533 377.385 169.038C376.995 168.543 376.677 168.295 376.677 168.543Z" fill="url(#paint42_linear_134_434)"/>
<path d="M450.977 175.19C450.623 175.826 450.446 176.852 450.481 177.948C450.552 179.574 450.658 179.716 451.437 179.716C452.252 179.716 452.287 179.574 452.464 176.958C452.606 174.659 452.571 174.235 452.11 174.235C451.792 174.235 451.296 174.659 450.977 175.19Z" fill="url(#paint43_linear_134_434)"/>
<path d="M449.49 183.393C449.171 183.888 449.631 184.842 450.163 184.842C450.694 184.842 451.154 183.888 450.835 183.393C450.729 183.216 450.446 183.074 450.163 183.074C449.879 183.074 449.596 183.216 449.49 183.393Z" fill="url(#paint44_linear_134_434)"/>
<path d="M448.002 186.292C447.577 186.964 447.825 191.666 448.321 191.985C449.1 192.48 449.454 192.055 449.525 190.464C449.596 189.616 449.737 188.449 449.844 187.883C450.021 187.105 449.915 186.752 449.454 186.363C448.64 185.797 448.321 185.797 448.002 186.292Z" fill="url(#paint45_linear_134_434)"/>
<path d="M446.692 195.344C446.125 195.485 446.09 195.732 446.267 196.97C446.727 199.693 447.825 199.622 447.967 196.864C448.038 195.308 447.825 195.061 446.692 195.344Z" fill="url(#paint46_linear_134_434)"/>
<path d="M450.481 196.546C450.127 197.147 451.296 198.172 451.792 197.677C452.04 197.43 452.11 197.005 452.004 196.723C451.756 196.086 450.835 195.98 450.481 196.546Z" fill="url(#paint47_linear_134_434)"/>
<defs>
<linearGradient id="paint0_linear_134_434" x1="-5.23243" y1="160.645" x2="233.921" y2="160.645" gradientUnits="userSpaceOnUse">
<stop stop-color="#222222" stop-opacity="0"/>
<stop offset="1" stop-color="#222222"/>
</linearGradient>
<linearGradient id="paint1_linear_134_434" x1="357.966" y1="17.0976" x2="360.601" y2="17.0976" gradientUnits="userSpaceOnUse">
<stop stop-color="#222222" stop-opacity="0"/>
<stop offset="1" stop-color="#222222"/>
</linearGradient>
<linearGradient id="paint2_linear_134_434" x1="165.987" y1="47.0205" x2="171.184" y2="47.0205" gradientUnits="userSpaceOnUse">
<stop stop-color="#222222" stop-opacity="0"/>
<stop offset="1" stop-color="#222222"/>
</linearGradient>
<linearGradient id="paint3_linear_134_434" x1="179.543" y1="45.4009" x2="182.032" y2="45.4009" gradientUnits="userSpaceOnUse">
<stop stop-color="#222222" stop-opacity="0"/>
<stop offset="1" stop-color="#222222"/>
</linearGradient>
<linearGradient id="paint4_linear_134_434" x1="187.29" y1="45.7691" x2="188.377" y2="45.7691" gradientUnits="userSpaceOnUse">
<stop stop-color="#222222" stop-opacity="0"/>
<stop offset="1" stop-color="#222222"/>
</linearGradient>
<linearGradient id="paint5_linear_134_434" x1="176.293" y1="47.5344" x2="178.894" y2="47.5344" gradientUnits="userSpaceOnUse">
<stop stop-color="#222222" stop-opacity="0"/>
<stop offset="1" stop-color="#222222"/>
</linearGradient>
<linearGradient id="paint6_linear_134_434" x1="172.454" y1="49.0467" x2="174.441" y2="49.0467" gradientUnits="userSpaceOnUse">
<stop stop-color="#222222" stop-opacity="0"/>
<stop offset="1" stop-color="#222222"/>
</linearGradient>
<linearGradient id="paint7_linear_134_434" x1="175.634" y1="51.0184" x2="183.112" y2="51.0184" gradientUnits="userSpaceOnUse">
<stop stop-color="#222222" stop-opacity="0"/>
<stop offset="1" stop-color="#222222"/>
</linearGradient>
<linearGradient id="paint8_linear_134_434" x1="299.653" y1="49.0813" x2="300.49" y2="49.0813" gradientUnits="userSpaceOnUse">
<stop stop-color="#222222" stop-opacity="0"/>
<stop offset="1" stop-color="#222222"/>
</linearGradient>
<linearGradient id="paint9_linear_134_434" x1="217.912" y1="64.1643" x2="224.845" y2="64.1643" gradientUnits="userSpaceOnUse">
<stop stop-color="#222222" stop-opacity="0"/>
<stop offset="1" stop-color="#222222"/>
</linearGradient>
<linearGradient id="paint10_linear_134_434" x1="178.651" y1="54.6904" x2="179.749" y2="54.6904" gradientUnits="userSpaceOnUse">
<stop stop-color="#222222" stop-opacity="0"/>
<stop offset="1" stop-color="#222222"/>
</linearGradient>
<linearGradient id="paint11_linear_134_434" x1="216.693" y1="55.0657" x2="217.959" y2="55.0657" gradientUnits="userSpaceOnUse">
<stop stop-color="#222222" stop-opacity="0"/>
<stop offset="1" stop-color="#222222"/>
</linearGradient>
<linearGradient id="paint12_linear_134_434" x1="302.971" y1="57.6658" x2="307.819" y2="57.6658" gradientUnits="userSpaceOnUse">
<stop stop-color="#222222" stop-opacity="0"/>
<stop offset="1" stop-color="#222222"/>
</linearGradient>
<linearGradient id="paint13_linear_134_434" x1="203.496" y1="55.9708" x2="205.016" y2="55.9708" gradientUnits="userSpaceOnUse">
<stop stop-color="#222222" stop-opacity="0"/>
<stop offset="1" stop-color="#222222"/>
</linearGradient>
<linearGradient id="paint14_linear_134_434" x1="289.765" y1="66.4158" x2="297.182" y2="66.4158" gradientUnits="userSpaceOnUse">
<stop stop-color="#222222" stop-opacity="0"/>
<stop offset="1" stop-color="#222222"/>
</linearGradient>
<linearGradient id="paint15_linear_134_434" x1="198.561" y1="64.742" x2="199.743" y2="64.742" gradientUnits="userSpaceOnUse">
<stop stop-color="#222222" stop-opacity="0"/>
<stop offset="1" stop-color="#222222"/>
</linearGradient>
<linearGradient id="paint16_linear_134_434" x1="230.198" y1="72.1561" x2="234.904" y2="72.1561" gradientUnits="userSpaceOnUse">
<stop stop-color="#222222" stop-opacity="0"/>
<stop offset="1" stop-color="#222222"/>
</linearGradient>
<linearGradient id="paint17_linear_134_434" x1="288.593" y1="70.1079" x2="289.876" y2="70.1079" gradientUnits="userSpaceOnUse">
<stop stop-color="#222222" stop-opacity="0"/>
<stop offset="1" stop-color="#222222"/>
</linearGradient>
<linearGradient id="paint18_linear_134_434" x1="301.508" y1="74.0269" x2="306.584" y2="74.0269" gradientUnits="userSpaceOnUse">
<stop stop-color="#222222" stop-opacity="0"/>
<stop offset="1" stop-color="#222222"/>
</linearGradient>
<linearGradient id="paint19_linear_134_434" x1="239.365" y1="73.326" x2="241.126" y2="73.326" gradientUnits="userSpaceOnUse">
<stop stop-color="#222222" stop-opacity="0"/>
<stop offset="1" stop-color="#222222"/>
</linearGradient>
<linearGradient id="paint20_linear_134_434" x1="294.502" y1="77.8427" x2="296.099" y2="77.8427" gradientUnits="userSpaceOnUse">
<stop stop-color="#222222" stop-opacity="0"/>
<stop offset="1" stop-color="#222222"/>
</linearGradient>
<linearGradient id="paint21_linear_134_434" x1="139.42" y1="98.4367" x2="163.335" y2="98.4367" gradientUnits="userSpaceOnUse">
<stop stop-color="#222222" stop-opacity="0"/>
<stop offset="1" stop-color="#222222"/>
</linearGradient>
<linearGradient id="paint22_linear_134_434" x1="242.928" y1="78.8493" x2="243.796" y2="78.8493" gradientUnits="userSpaceOnUse">
<stop stop-color="#222222" stop-opacity="0"/>
<stop offset="1" stop-color="#222222"/>
</linearGradient>
<linearGradient id="paint23_linear_134_434" x1="215.311" y1="82.8007" x2="216.375" y2="82.8007" gradientUnits="userSpaceOnUse">
<stop stop-color="#222222" stop-opacity="0"/>
<stop offset="1" stop-color="#222222"/>
</linearGradient>
<linearGradient id="paint24_linear_134_434" x1="224.82" y1="83.2866" x2="226.298" y2="83.2866" gradientUnits="userSpaceOnUse">
<stop stop-color="#222222" stop-opacity="0"/>
<stop offset="1" stop-color="#222222"/>
</linearGradient>
<linearGradient id="paint25_linear_134_434" x1="414.527" y1="87.8238" x2="416.302" y2="87.8238" gradientUnits="userSpaceOnUse">
<stop stop-color="#222222" stop-opacity="0"/>
<stop offset="1" stop-color="#222222"/>
</linearGradient>
<linearGradient id="paint26_linear_134_434" x1="443.706" y1="88.3339" x2="444.993" y2="88.3339" gradientUnits="userSpaceOnUse">
<stop stop-color="#222222" stop-opacity="0"/>
<stop offset="1" stop-color="#222222"/>
</linearGradient>
<linearGradient id="paint27_linear_134_434" x1="204.032" y1="90.7703" x2="205.538" y2="90.7703" gradientUnits="userSpaceOnUse">
<stop stop-color="#222222" stop-opacity="0"/>
<stop offset="1" stop-color="#222222"/>
</linearGradient>
<linearGradient id="paint28_linear_134_434" x1="438.343" y1="91.7967" x2="441.105" y2="91.7967" gradientUnits="userSpaceOnUse">
<stop stop-color="#222222" stop-opacity="0"/>
<stop offset="1" stop-color="#222222"/>
</linearGradient>
<linearGradient id="paint29_linear_134_434" x1="202.542" y1="95.2006" x2="203.404" y2="95.2006" gradientUnits="userSpaceOnUse">
<stop stop-color="#222222" stop-opacity="0"/>
<stop offset="1" stop-color="#222222"/>
</linearGradient>
<linearGradient id="paint30_linear_134_434" x1="255.522" y1="96.578" x2="257.802" y2="96.578" gradientUnits="userSpaceOnUse">
<stop stop-color="#222222" stop-opacity="0"/>
<stop offset="1" stop-color="#222222"/>
</linearGradient>
<linearGradient id="paint31_linear_134_434" x1="208.03" y1="101.144" x2="209.011" y2="101.144" gradientUnits="userSpaceOnUse">
<stop stop-color="#222222" stop-opacity="0"/>
<stop offset="1" stop-color="#222222"/>
</linearGradient>
<linearGradient id="paint32_linear_134_434" x1="178.107" y1="104.289" x2="180.297" y2="104.289" gradientUnits="userSpaceOnUse">
<stop stop-color="#222222" stop-opacity="0"/>
<stop offset="1" stop-color="#222222"/>
</linearGradient>
<linearGradient id="paint33_linear_134_434" x1="202.76" y1="103.907" x2="204.095" y2="103.907" gradientUnits="userSpaceOnUse">
<stop stop-color="#222222" stop-opacity="0"/>
<stop offset="1" stop-color="#222222"/>
</linearGradient>
<linearGradient id="paint34_linear_134_434" x1="188.747" y1="105.419" x2="190.367" y2="105.419" gradientUnits="userSpaceOnUse">
<stop stop-color="#222222" stop-opacity="0"/>
<stop offset="1" stop-color="#222222"/>
</linearGradient>
<linearGradient id="paint35_linear_134_434" x1="124.306" y1="110.356" x2="127.303" y2="110.356" gradientUnits="userSpaceOnUse">
<stop stop-color="#222222" stop-opacity="0"/>
<stop offset="1" stop-color="#222222"/>
</linearGradient>
<linearGradient id="paint36_linear_134_434" x1="84.2064" y1="109.322" x2="85.2272" y2="109.322" gradientUnits="userSpaceOnUse">
<stop stop-color="#222222" stop-opacity="0"/>
<stop offset="1" stop-color="#222222"/>
</linearGradient>
<linearGradient id="paint37_linear_134_434" x1="194.712" y1="110.906" x2="195.933" y2="110.906" gradientUnits="userSpaceOnUse">
<stop stop-color="#222222" stop-opacity="0"/>
<stop offset="1" stop-color="#222222"/>
</linearGradient>
<linearGradient id="paint38_linear_134_434" x1="0.240412" y1="117.289" x2="5.46015" y2="117.289" gradientUnits="userSpaceOnUse">
<stop stop-color="#222222" stop-opacity="0"/>
<stop offset="1" stop-color="#222222"/>
</linearGradient>
<linearGradient id="paint39_linear_134_434" x1="442.675" y1="141.359" x2="444.592" y2="141.359" gradientUnits="userSpaceOnUse">
<stop stop-color="#222222" stop-opacity="0"/>
<stop offset="1" stop-color="#222222"/>
</linearGradient>
<linearGradient id="paint40_linear_134_434" x1="446.065" y1="147.779" x2="447.193" y2="147.779" gradientUnits="userSpaceOnUse">
<stop stop-color="#222222" stop-opacity="0"/>
<stop offset="1" stop-color="#222222"/>
</linearGradient>
<linearGradient id="paint41_linear_134_434" x1="451.382" y1="166.987" x2="452.293" y2="166.987" gradientUnits="userSpaceOnUse">
<stop stop-color="#222222" stop-opacity="0"/>
<stop offset="1" stop-color="#222222"/>
</linearGradient>
<linearGradient id="paint42_linear_134_434" x1="374.761" y1="171.018" x2="376.534" y2="171.018" gradientUnits="userSpaceOnUse">
<stop stop-color="#222222" stop-opacity="0"/>
<stop offset="1" stop-color="#222222"/>
</linearGradient>
<linearGradient id="paint43_linear_134_434" x1="450.453" y1="177.584" x2="451.562" y2="177.584" gradientUnits="userSpaceOnUse">
<stop stop-color="#222222" stop-opacity="0"/>
<stop offset="1" stop-color="#222222"/>
</linearGradient>
<linearGradient id="paint44_linear_134_434" x1="449.366" y1="184.155" x2="450.204" y2="184.155" gradientUnits="userSpaceOnUse">
<stop stop-color="#222222" stop-opacity="0"/>
<stop offset="1" stop-color="#222222"/>
</linearGradient>
<linearGradient id="paint45_linear_134_434" x1="447.76" y1="189.749" x2="448.911" y2="189.749" gradientUnits="userSpaceOnUse">
<stop stop-color="#222222" stop-opacity="0"/>
<stop offset="1" stop-color="#222222"/>
</linearGradient>
<linearGradient id="paint46_linear_134_434" x1="446.151" y1="197.522" x2="447.123" y2="197.522" gradientUnits="userSpaceOnUse">
<stop stop-color="#222222" stop-opacity="0"/>
<stop offset="1" stop-color="#222222"/>
</linearGradient>
<linearGradient id="paint47_linear_134_434" x1="450.396" y1="197.174" x2="451.277" y2="197.174" gradientUnits="userSpaceOnUse">
<stop stop-color="#222222" stop-opacity="0"/>
<stop offset="1" stop-color="#222222"/>
</linearGradient>
</defs>
</svg>
