<svg width="137" height="32" viewBox="0 0 137 32" fill="none" xmlns="http://www.w3.org/2000/svg">
<path fill-rule="evenodd" clip-rule="evenodd" d="M28.4122 1.47253C20.9347 -0.490844 13.0653 -0.490844 5.58771 1.47253C3.0776 2.13146 1.16047 4.15492 0.662154 6.67113C-0.220718 11.1303 -0.220718 15.7166 0.662154 20.1757C1.16034 22.6919 3.07747 24.7154 5.58771 25.375C10.1099 26.5624 14.7939 27.0367 19.4662 26.7797C20.0727 26.7465 20.6698 26.944 21.1339 27.3307L26.6408 31.9208C26.7417 32.0052 26.8835 32.0237 27.0033 31.9688C27.1231 31.9138 27.2002 31.7949 27.2002 31.6645V26.3343C27.2002 25.9508 27.466 25.614 27.8424 25.5207C28.0327 25.4734 28.2226 25.4248 28.4122 25.375C30.9225 24.7154 32.8397 22.6919 33.3378 20.1757C34.2207 15.7166 34.2207 11.1303 33.3378 6.67113C32.8395 4.15492 30.9224 2.13146 28.4122 1.47253ZM24.0833 5.94286C24.5948 5.94286 25.0096 6.3522 25.0096 6.85714V10.0571C25.0096 10.5621 24.5948 10.9714 24.0833 10.9714H20.8413C20.3297 10.9714 19.915 11.3808 19.915 11.8857V20.5714C19.915 21.0764 19.5003 21.4857 18.9887 21.4857H15.2836C14.772 21.4857 14.3573 21.0764 14.3573 20.5714V11.8857C14.3573 11.3808 13.9426 10.9714 13.4311 10.9714H10.1891C9.67751 10.9714 9.2628 10.5621 9.2628 10.0571V6.85714C9.2628 6.3522 9.67751 5.94286 10.1891 5.94286H24.0833Z" fill="#FC3234"/>
<path d="M47.819 23.5C47.6503 23.5 47.5123 23.4463 47.405 23.339C47.2977 23.2317 47.244 23.0937 47.244 22.925V10.597H43.058C42.9047 10.597 42.7743 10.5433 42.667 10.436C42.5597 10.3287 42.506 10.1983 42.506 10.045V7.975C42.506 7.80633 42.5597 7.66833 42.667 7.561C42.7743 7.45367 42.9047 7.4 43.058 7.4H55.11C55.2787 7.4 55.4167 7.45367 55.524 7.561C55.6313 7.66833 55.685 7.80633 55.685 7.975V10.045C55.685 10.1983 55.6313 10.3287 55.524 10.436C55.4167 10.5433 55.2787 10.597 55.11 10.597H50.947V22.925C50.947 23.0937 50.8933 23.2317 50.786 23.339C50.6787 23.4463 50.5407 23.5 50.372 23.5H47.819ZM60.9139 23.73C59.1506 23.73 57.7476 23.2393 56.7049 22.258C55.6776 21.2767 55.1332 19.8507 55.0719 17.98C55.0719 17.8573 55.0719 17.6963 55.0719 17.497C55.0719 17.2823 55.0719 17.1137 55.0719 16.991C55.1332 15.8103 55.4016 14.7983 55.8769 13.955C56.3522 13.0963 57.0192 12.4447 57.8779 12C58.7366 11.54 59.7409 11.31 60.8909 11.31C62.1789 11.31 63.2522 11.5783 64.1109 12.115C64.9849 12.6363 65.6366 13.357 66.0659 14.277C66.5106 15.1817 66.7329 16.2243 66.7329 17.405V17.934C66.7329 18.0873 66.6716 18.2177 66.5489 18.325C66.4416 18.4323 66.3112 18.486 66.1579 18.486H58.6369C58.6369 18.5013 58.6369 18.532 58.6369 18.578C58.6369 18.6087 58.6369 18.6393 58.6369 18.67C58.6522 19.1607 58.7442 19.613 58.9129 20.027C59.0969 20.4257 59.3499 20.7477 59.6719 20.993C60.0092 21.2383 60.4079 21.361 60.8679 21.361C61.2512 21.361 61.5656 21.3073 61.8109 21.2C62.0562 21.0927 62.2556 20.9623 62.4089 20.809C62.5776 20.6557 62.7002 20.5253 62.7769 20.418C62.9149 20.2647 63.0222 20.1727 63.0989 20.142C63.1909 20.096 63.3289 20.073 63.5129 20.073H65.9049C66.0582 20.073 66.1809 20.119 66.2729 20.211C66.3802 20.2877 66.4262 20.4027 66.4109 20.556C66.3956 20.8013 66.2652 21.108 66.0199 21.476C65.7899 21.8287 65.4449 22.1813 64.9849 22.534C64.5249 22.8713 63.9499 23.155 63.2599 23.385C62.5852 23.615 61.8032 23.73 60.9139 23.73ZM58.6369 16.393H63.1449V16.347C63.1449 15.795 63.0529 15.3197 62.8689 14.921C62.7002 14.507 62.4472 14.185 62.1099 13.955C61.7726 13.725 61.3662 13.61 60.8909 13.61C60.4156 13.61 60.0092 13.725 59.6719 13.955C59.3346 14.185 59.0739 14.507 58.8899 14.921C58.7212 15.3197 58.6369 15.795 58.6369 16.347V16.393ZM69.584 23.5C69.4307 23.5 69.3003 23.4463 69.193 23.339C69.0857 23.2317 69.032 23.0937 69.032 22.925V12.115C69.032 11.9463 69.0857 11.8083 69.193 11.701C69.3003 11.5937 69.4307 11.54 69.584 11.54H71.838C72.0067 11.54 72.1447 11.5937 72.252 11.701C72.3593 11.8083 72.413 11.9463 72.413 12.115V13.012C72.8117 12.5213 73.3253 12.115 73.954 11.793C74.5827 11.471 75.3493 11.31 76.254 11.31C77.1587 11.31 77.9483 11.517 78.623 11.931C79.313 12.3297 79.8497 12.92 80.233 13.702C80.6317 14.4687 80.831 15.404 80.831 16.508V22.925C80.831 23.0937 80.7697 23.2317 80.647 23.339C80.5397 23.4463 80.4093 23.5 80.256 23.5H77.818C77.6493 23.5 77.5113 23.4463 77.404 23.339C77.2967 23.2317 77.243 23.0937 77.243 22.925V16.646C77.243 15.8333 77.0437 15.2047 76.645 14.76C76.2617 14.3 75.6943 14.07 74.943 14.07C74.2223 14.07 73.6473 14.3 73.218 14.76C72.7887 15.2047 72.574 15.8333 72.574 16.646V22.925C72.574 23.0937 72.5203 23.2317 72.413 23.339C72.3057 23.4463 72.1753 23.5 72.022 23.5H69.584ZM90.2337 23.73C88.7924 23.73 87.5657 23.4923 86.5537 23.017C85.557 22.5263 84.7827 21.821 84.2307 20.901C83.6787 19.9657 83.372 18.831 83.3107 17.497C83.2954 16.8683 83.2877 16.1937 83.2877 15.473C83.2877 14.7523 83.2954 14.0623 83.3107 13.403C83.372 12.0843 83.6787 10.965 84.2307 10.045C84.798 9.10967 85.5877 8.39667 86.5997 7.906C87.6117 7.41533 88.823 7.17 90.2337 7.17C91.261 7.17 92.1964 7.30033 93.0397 7.561C93.883 7.82167 94.6114 8.19733 95.2247 8.688C95.838 9.17867 96.3134 9.75367 96.6507 10.413C96.988 11.0723 97.172 11.8083 97.2027 12.621C97.2027 12.759 97.149 12.874 97.0417 12.966C96.9497 13.058 96.8347 13.104 96.6967 13.104H94.0747C93.8907 13.104 93.745 13.058 93.6377 12.966C93.5304 12.874 93.446 12.7207 93.3847 12.506C93.1547 11.6013 92.7714 10.9803 92.2347 10.643C91.698 10.3057 91.031 10.137 90.2337 10.137C89.283 10.137 88.5317 10.3977 87.9797 10.919C87.4277 11.4403 87.1287 12.3067 87.0827 13.518C87.0367 14.7753 87.0367 16.0633 87.0827 17.382C87.1287 18.5933 87.4277 19.4597 87.9797 19.981C88.5317 20.5023 89.283 20.763 90.2337 20.763C91.031 20.763 91.698 20.5943 92.2347 20.257C92.7867 19.9043 93.17 19.2833 93.3847 18.394C93.446 18.164 93.5304 18.0107 93.6377 17.934C93.745 17.842 93.8907 17.796 94.0747 17.796H96.6967C96.8347 17.796 96.9497 17.842 97.0417 17.934C97.149 18.026 97.2027 18.141 97.2027 18.279C97.172 19.0917 96.988 19.8277 96.6507 20.487C96.3134 21.1463 95.838 21.7213 95.2247 22.212C94.6114 22.7027 93.883 23.0783 93.0397 23.339C92.1964 23.5997 91.261 23.73 90.2337 23.73ZM100.109 23.5C99.9403 23.5 99.8023 23.4463 99.695 23.339C99.5876 23.2317 99.534 23.0937 99.534 22.925V7.745C99.534 7.57633 99.5876 7.43833 99.695 7.331C99.8023 7.22367 99.9403 7.17 100.109 7.17H102.593C102.746 7.17 102.877 7.22367 102.984 7.331C103.091 7.43833 103.145 7.57633 103.145 7.745V12.92C103.559 12.4293 104.065 12.0383 104.663 11.747C105.261 11.4557 105.982 11.31 106.825 11.31C107.73 11.31 108.527 11.517 109.217 11.931C109.922 12.3297 110.474 12.92 110.873 13.702C111.272 14.4687 111.471 15.404 111.471 16.508V22.925C111.471 23.0937 111.417 23.2317 111.31 23.339C111.203 23.4463 111.065 23.5 110.896 23.5H108.389C108.236 23.5 108.105 23.4463 107.998 23.339C107.891 23.2317 107.837 23.0937 107.837 22.925V16.646C107.837 15.8333 107.638 15.2047 107.239 14.76C106.84 14.3 106.273 14.07 105.537 14.07C104.816 14.07 104.234 14.3 103.789 14.76C103.36 15.2047 103.145 15.8333 103.145 16.646V22.925C103.145 23.0937 103.091 23.2317 102.984 23.339C102.877 23.4463 102.746 23.5 102.593 23.5H100.109ZM117.742 23.73C116.93 23.73 116.201 23.5767 115.557 23.27C114.913 22.948 114.4 22.5187 114.016 21.982C113.633 21.4453 113.441 20.8473 113.441 20.188C113.441 19.0993 113.878 18.2407 114.752 17.612C115.642 16.9833 116.807 16.554 118.248 16.324L121.261 15.887V15.473C121.261 14.875 121.123 14.415 120.847 14.093C120.571 13.771 120.088 13.61 119.398 13.61C118.892 13.61 118.486 13.7097 118.179 13.909C117.873 14.1083 117.635 14.369 117.466 14.691C117.344 14.8903 117.167 14.99 116.937 14.99H114.752C114.584 14.99 114.453 14.944 114.361 14.852C114.269 14.7447 114.231 14.622 114.246 14.484C114.246 14.2233 114.346 13.9167 114.545 13.564C114.745 13.2113 115.051 12.8663 115.465 12.529C115.879 12.1763 116.408 11.885 117.052 11.655C117.696 11.425 118.486 11.31 119.421 11.31C120.387 11.31 121.215 11.425 121.905 11.655C122.595 11.885 123.147 12.207 123.561 12.621C123.975 13.035 124.282 13.518 124.481 14.07C124.681 14.6067 124.78 15.1893 124.78 15.818V22.925C124.78 23.0937 124.727 23.2317 124.619 23.339C124.512 23.4463 124.374 23.5 124.205 23.5H121.951C121.798 23.5 121.668 23.4463 121.56 23.339C121.453 23.2317 121.399 23.0937 121.399 22.925V22.074C121.2 22.3653 120.932 22.6413 120.594 22.902C120.257 23.1473 119.851 23.3467 119.375 23.5C118.915 23.6533 118.371 23.73 117.742 23.73ZM118.662 21.338C119.168 21.338 119.621 21.2307 120.019 21.016C120.418 20.8013 120.732 20.4717 120.962 20.027C121.192 19.5823 121.307 19.0227 121.307 18.348V17.957L119.168 18.302C118.34 18.44 117.735 18.647 117.351 18.923C116.968 19.199 116.776 19.5363 116.776 19.935C116.776 20.2263 116.861 20.4793 117.029 20.694C117.213 20.9087 117.451 21.0697 117.742 21.177C118.034 21.2843 118.34 21.338 118.662 21.338ZM133.225 23.5C132.275 23.5 131.462 23.3467 130.787 23.04C130.113 22.718 129.599 22.2273 129.246 21.568C128.909 20.9087 128.74 20.0807 128.74 19.084V14.254H126.946C126.778 14.254 126.64 14.2003 126.532 14.093C126.425 13.9857 126.371 13.8477 126.371 13.679V12.115C126.371 11.9463 126.425 11.8083 126.532 11.701C126.64 11.5937 126.778 11.54 126.946 11.54H128.74V7.745C128.74 7.57633 128.794 7.43833 128.901 7.331C129.024 7.22367 129.162 7.17 129.315 7.17H131.569C131.738 7.17 131.876 7.22367 131.983 7.331C132.091 7.43833 132.144 7.57633 132.144 7.745V11.54H135.019C135.173 11.54 135.303 11.5937 135.41 11.701C135.518 11.8083 135.571 11.9463 135.571 12.115V13.679C135.571 13.8477 135.518 13.9857 135.41 14.093C135.303 14.2003 135.173 14.254 135.019 14.254H132.144V18.808C132.144 19.3907 132.244 19.8507 132.443 20.188C132.658 20.51 133.026 20.671 133.547 20.671H135.226C135.38 20.671 135.51 20.7247 135.617 20.832C135.725 20.9393 135.778 21.0697 135.778 21.223V22.925C135.778 23.0937 135.725 23.2317 135.617 23.339C135.51 23.4463 135.38 23.5 135.226 23.5H133.225Z" fill="#eeeeee"/>
</svg>
